<svg width="800" height="600" xmlns="http://www.w3.org/2000/svg">

 <g>
  <title>Layer 1</title>
  <ellipse ry="63.5" rx="60" id="svg_1" cy="423.5" cx="219" stroke="#000" fill="#fff"/>
  <ellipse ry="63.5" rx="60" id="svg_4" cy="424.5" cx="338" stroke="#000" fill="#fff"/>
  <line id="svg_5" y2="201.92238" x2="216" y1="363" x1="216" stroke="#000" fill="none"/>
  <line id="svg_6" y2="194.16382" x2="336" y1="365" x1="336" stroke="#000" fill="none"/>
  <path d="m216,202c1,-3 2.3754,-10.11809 4,-17c0.72655,-3.07768 2.5695,-8.133 4,-12c1.55159,-4.19435 4.36168,-10.3054 7,-15c2.44963,-4.35883 4.69255,-8.186 6,-10c0.8269,-1.14726 2,-3 3,-4c2,-2 4,-4 6,-6c1,-1 1.59399,-2.513 4,-4c2.68999,-1.66251 6.06601,-1.87766 8,-3c3.11847,-1.80972 4,-2 5,-2c2,0 3,0 4,0c0,0 2,0 4,0c4,0 8.25745,-1.73871 14,0c3.45084,1.04483 4.07611,1.61731 5,2c2.61313,1.0824 4,3 6,5c2,2 3,3 4,4c1,1 3,3 3,3c2,2 3.69254,3.186 5,5c0.8269,1.14726 1.69345,2.4588 3,3c0.92389,0.38269 1.07611,-0.38269 2,0c3.91968,1.62358 5,4 6,5c0,0 2.07611,0.61731 3,1c1.30655,0.5412 1,1 1,2c0,0 -0.22977,0.02675 0,1c0.51373,2.17625 3.34619,4.70546 5,7c1.30746,1.814 3.48627,4.82375 4,7c0.22977,0.97325 0,3 0,4c0,0 0,1 0,3c0,0 0,1 0,2c0,1 0,1 0,1c0,1 0,2 0,3l0,1" id="svg_7" stroke="#000" fill="none"/>
 </g>
</svg>