<?xml version="1.0" encoding="utf-8" ?>
<svg baseProfile="full" height="1024px" version="1.1" viewBox="0,0,1024,1024" width="1024px" xmlns="http://www.w3.org/2000/svg" xmlns:ev="http://www.w3.org/2001/xml-events" xmlns:xlink="http://www.w3.org/1999/xlink"><defs /><path d="M 750,411 L 748,413 L 748,483 L 749,484 L 766,484 L 766,437 L 767,436 L 768,437 L 768,439 L 769,440 L 769,441 L 770,442 L 770,443 L 771,444 L 771,445 L 772,446 L 772,447 L 773,448 L 773,449 L 775,451 L 775,452 L 776,453 L 776,454 L 777,455 L 777,456 L 778,457 L 778,458 L 779,459 L 779,460 L 780,461 L 780,462 L 781,463 L 781,464 L 782,465 L 782,466 L 784,468 L 784,469 L 785,470 L 785,471 L 786,472 L 786,473 L 787,474 L 787,475 L 788,476 L 788,477 L 789,478 L 789,479 L 790,480 L 790,481 L 791,482 L 791,483 L 792,484 L 814,484 L 814,412 L 813,411 L 797,411 L 795,413 L 795,454 L 795,413 L 797,411 L 813,411 L 814,412 L 814,483 L 813,484 L 793,484 L 790,481 L 790,480 L 789,479 L 789,478 L 788,477 L 788,476 L 787,475 L 787,474 L 786,473 L 786,472 L 785,471 L 785,470 L 784,469 L 784,468 L 783,467 L 783,466 L 781,464 L 781,463 L 780,462 L 780,461 L 779,460 L 779,459 L 778,458 L 778,457 L 777,456 L 777,455 L 776,454 L 776,453 L 775,452 L 775,451 L 774,450 L 774,449 L 772,447 L 772,446 L 771,445 L 771,444 L 770,443 L 770,442 L 769,441 L 769,440 L 768,439 L 768,437 L 767,436 L 766,437 L 766,483 L 765,484 L 749,484 L 748,483 L 748,413 L 750,411 L 769,411 L 772,414 L 772,415 L 773,416 L 773,417 L 774,418 L 774,419 L 775,420 L 775,421 L 776,422 L 776,423 L 777,424 L 777,425 L 779,427 L 779,428 L 780,429 L 780,430 L 781,431 L 781,432 L 782,433 L 782,434 L 783,435 L 783,436 L 784,437 L 784,438 L 785,439 L 785,440 L 786,441 L 786,442 L 788,444 L 788,445 L 789,446 L 789,447 L 790,448 L 790,449 L 791,450 L 791,451 L 792,452 L 792,453 L 793,454 L 793,455 L 794,456 L 794,458 L 794,456 L 793,455 L 793,454 L 792,453 L 792,452 L 791,451 L 791,450 L 790,449 L 790,448 L 789,447 L 789,446 L 788,445 L 788,444 L 787,443 L 787,442 L 785,440 L 785,439 L 784,438 L 784,437 L 783,436 L 783,435 L 782,434 L 782,433 L 781,432 L 781,431 L 780,430 L 780,429 L 779,428 L 779,427 L 778,426 L 778,425 L 776,423 L 776,422 L 775,421 L 775,420 L 774,419 L 774,418 L 773,417 L 773,416 L 772,415 L 772,414 L 771,413 L 771,412 L 770,412 L 769,411 Z" fill="none" stroke="black" stroke-width="1" /><path d="M 588,411 L 586,413 L 586,483 L 587,484 L 605,484 L 605,458 L 607,456 L 609,456 L 610,457 L 614,457 L 615,458 L 616,458 L 622,464 L 622,465 L 623,466 L 623,467 L 624,468 L 624,469 L 625,470 L 625,471 L 626,472 L 626,473 L 627,474 L 627,475 L 628,476 L 628,477 L 629,478 L 629,479 L 630,480 L 630,481 L 631,482 L 631,483 L 632,484 L 652,484 L 652,482 L 651,481 L 651,480 L 650,479 L 650,477 L 649,476 L 649,475 L 648,474 L 648,473 L 647,472 L 647,471 L 646,470 L 646,469 L 645,468 L 645,467 L 644,466 L 644,465 L 643,464 L 643,463 L 642,462 L 642,461 L 641,460 L 641,459 L 639,457 L 639,456 L 634,451 L 632,451 L 631,450 L 632,449 L 634,449 L 635,448 L 636,448 L 641,443 L 641,442 L 642,441 L 642,439 L 643,438 L 643,425 L 642,424 L 642,422 L 641,421 L 641,420 L 640,419 L 640,418 L 638,416 L 637,416 L 636,415 L 635,415 L 634,414 L 633,414 L 632,413 L 631,413 L 630,412 L 627,412 L 626,411 Z" fill="none" stroke="black" stroke-width="1" /><path d="M 588,411 L 626,411 L 627,412 L 630,412 L 631,413 L 632,413 L 633,414 L 634,414 L 635,415 L 636,415 L 641,420 L 641,421 L 642,422 L 642,424 L 643,425 L 643,438 L 642,439 L 642,441 L 634,449 L 632,449 L 631,450 L 632,451 L 633,451 L 640,458 L 640,459 L 642,461 L 642,462 L 643,463 L 643,464 L 644,465 L 644,466 L 645,467 L 645,468 L 646,469 L 646,470 L 647,471 L 647,472 L 648,473 L 648,474 L 649,475 L 649,476 L 650,477 L 650,479 L 651,480 L 651,481 L 652,482 L 652,483 L 651,484 L 632,484 L 631,483 L 631,482 L 630,481 L 630,480 L 629,479 L 629,478 L 628,477 L 628,476 L 627,475 L 627,474 L 626,473 L 626,472 L 625,471 L 625,470 L 624,469 L 624,468 L 623,467 L 623,466 L 622,465 L 622,464 L 621,463 L 621,462 L 618,459 L 617,459 L 616,458 L 615,458 L 614,457 L 610,457 L 609,456 L 607,456 L 605,458 L 605,483 L 604,484 L 587,484 L 586,483 L 586,413 Z" fill="none" stroke="black" stroke-width="1" /><path d="M 607,424 L 605,426 L 605,442 L 606,443 L 614,443 L 615,442 L 620,442 L 621,441 L 622,441 L 622,440 L 623,439 L 623,429 L 622,428 L 622,427 L 621,427 L 620,426 L 619,426 L 618,425 L 613,425 L 612,424 Z" fill="none" stroke="black" stroke-width="1" /><path d="M 607,424 L 612,424 L 613,425 L 618,425 L 619,426 L 620,426 L 623,429 L 623,439 L 620,442 L 615,442 L 614,443 L 606,443 L 605,442 L 605,426 Z" fill="none" stroke="black" stroke-width="1" /><path d="M 520,411 L 518,413 L 518,483 L 519,484 L 570,484 L 570,471 L 569,470 L 538,470 L 537,469 L 537,455 L 539,453 L 568,453 L 568,440 L 567,439 L 538,439 L 537,438 L 537,427 L 539,425 L 569,425 L 569,412 L 568,411 Z" fill="none" stroke="black" stroke-width="1" /><path d="M 520,411 L 568,411 L 569,412 L 569,424 L 568,425 L 539,425 L 537,427 L 537,438 L 538,439 L 567,439 L 568,440 L 568,452 L 567,453 L 539,453 L 537,455 L 537,469 L 538,470 L 569,470 L 570,471 L 570,483 L 569,484 L 519,484 L 518,483 L 518,413 Z" fill="none" stroke="black" stroke-width="1" /><path d="M 443,411 L 441,413 L 441,424 L 442,425 L 464,425 L 465,426 L 465,483 L 466,484 L 485,484 L 485,427 L 487,425 L 509,425 L 509,412 L 508,411 Z" fill="none" stroke="black" stroke-width="1" /><path d="M 443,411 L 508,411 L 509,412 L 509,424 L 508,425 L 487,425 L 485,427 L 485,483 L 484,484 L 466,484 L 465,483 L 465,426 L 464,425 L 442,425 L 441,424 L 441,413 Z" fill="none" stroke="black" stroke-width="1" /><path d="M 379,411 L 377,413 L 377,483 L 378,484 L 396,484 L 396,461 L 398,459 L 420,459 L 421,458 L 423,458 L 424,457 L 426,457 L 427,456 L 428,456 L 430,454 L 431,454 L 434,451 L 434,450 L 435,449 L 435,448 L 436,447 L 436,446 L 437,445 L 437,441 L 438,440 L 438,431 L 437,430 L 437,426 L 436,425 L 436,424 L 435,423 L 435,422 L 434,421 L 434,420 L 431,417 L 430,417 L 428,415 L 427,415 L 426,414 L 425,414 L 424,413 L 422,413 L 421,412 L 419,412 L 418,411 Z" fill="none" stroke="black" stroke-width="1" /><path d="M 379,411 L 418,411 L 419,412 L 421,412 L 422,413 L 424,413 L 425,414 L 426,414 L 428,416 L 429,416 L 435,422 L 435,423 L 436,424 L 436,425 L 437,426 L 437,430 L 438,431 L 438,440 L 437,441 L 437,445 L 436,446 L 436,447 L 435,448 L 435,449 L 429,455 L 428,455 L 426,457 L 424,457 L 423,458 L 421,458 L 420,459 L 398,459 L 396,461 L 396,483 L 395,484 L 378,484 L 377,483 L 377,413 Z" fill="none" stroke="black" stroke-width="1" /><path d="M 398,424 L 396,426 L 396,445 L 397,446 L 407,446 L 408,445 L 412,445 L 413,444 L 414,444 L 416,442 L 416,441 L 417,440 L 417,431 L 416,430 L 416,429 L 414,427 L 413,427 L 412,426 L 411,426 L 410,425 L 406,425 L 405,424 Z" fill="none" stroke="black" stroke-width="1" /><path d="M 398,424 L 405,424 L 406,425 L 410,425 L 411,426 L 412,426 L 413,427 L 414,427 L 416,429 L 416,430 L 417,431 L 417,440 L 416,441 L 416,442 L 414,444 L 413,444 L 412,445 L 408,445 L 407,446 L 397,446 L 396,445 L 396,426 Z" fill="none" stroke="black" stroke-width="1" /><path d="M 342,411 L 340,413 L 340,483 L 341,484 L 359,484 L 359,412 L 358,411 Z" fill="none" stroke="black" stroke-width="1" /><path d="M 342,411 L 358,411 L 359,412 L 359,483 L 358,484 L 341,484 L 340,483 L 340,413 Z" fill="none" stroke="black" stroke-width="1" /><path d="M 265,411 L 263,413 L 263,483 L 264,484 L 282,484 L 282,458 L 284,456 L 286,456 L 287,457 L 291,457 L 292,458 L 293,458 L 299,464 L 299,465 L 300,466 L 300,467 L 301,468 L 301,469 L 302,470 L 302,471 L 303,472 L 303,473 L 304,474 L 304,475 L 305,476 L 305,477 L 306,478 L 306,479 L 307,480 L 307,481 L 308,482 L 308,483 L 309,484 L 329,484 L 329,482 L 328,481 L 328,480 L 327,479 L 327,477 L 326,476 L 326,475 L 325,474 L 325,473 L 324,472 L 324,471 L 323,470 L 323,469 L 322,468 L 322,467 L 321,466 L 321,465 L 320,464 L 320,463 L 319,462 L 319,461 L 318,460 L 318,459 L 316,457 L 316,456 L 311,451 L 309,451 L 308,450 L 309,449 L 311,449 L 312,448 L 313,448 L 318,443 L 318,442 L 319,441 L 319,439 L 320,438 L 320,425 L 319,424 L 319,422 L 318,421 L 318,420 L 317,419 L 317,418 L 315,416 L 314,416 L 313,415 L 312,415 L 311,414 L 310,414 L 309,413 L 308,413 L 307,412 L 304,412 L 303,411 Z" fill="none" stroke="black" stroke-width="1" /><path d="M 265,411 L 303,411 L 304,412 L 307,412 L 308,413 L 309,413 L 310,414 L 311,414 L 312,415 L 313,415 L 318,420 L 318,421 L 319,422 L 319,424 L 320,425 L 320,438 L 319,439 L 319,441 L 311,449 L 309,449 L 308,450 L 309,451 L 310,451 L 317,458 L 317,459 L 319,461 L 319,462 L 320,463 L 320,464 L 321,465 L 321,466 L 322,467 L 322,468 L 323,469 L 323,470 L 324,471 L 324,472 L 325,473 L 325,474 L 326,475 L 326,476 L 327,477 L 327,479 L 328,480 L 328,481 L 329,482 L 329,483 L 328,484 L 309,484 L 308,483 L 308,482 L 307,481 L 307,480 L 306,479 L 306,478 L 305,477 L 305,476 L 304,475 L 304,474 L 303,473 L 303,472 L 302,471 L 302,470 L 301,469 L 301,468 L 300,467 L 300,466 L 299,465 L 299,464 L 298,463 L 298,462 L 295,459 L 294,459 L 293,458 L 292,458 L 291,457 L 287,457 L 286,456 L 284,456 L 282,458 L 282,483 L 281,484 L 264,484 L 263,483 L 263,413 Z" fill="none" stroke="black" stroke-width="1" /><path d="M 284,424 L 282,426 L 282,442 L 283,443 L 291,443 L 292,442 L 297,442 L 298,441 L 299,441 L 299,440 L 300,439 L 300,429 L 299,428 L 299,427 L 298,427 L 297,426 L 296,426 L 295,425 L 290,425 L 289,424 Z" fill="none" stroke="black" stroke-width="1" /><path d="M 284,424 L 289,424 L 290,425 L 295,425 L 296,426 L 297,426 L 300,429 L 300,439 L 297,442 L 292,442 L 291,443 L 283,443 L 282,442 L 282,426 Z" fill="none" stroke="black" stroke-width="1" /><path d="M 188,411 L 186,413 L 186,424 L 187,425 L 209,425 L 210,426 L 210,483 L 211,484 L 230,484 L 230,427 L 232,425 L 254,425 L 254,412 L 253,411 Z" fill="none" stroke="black" stroke-width="1" /><path d="M 188,411 L 253,411 L 254,412 L 254,424 L 253,425 L 232,425 L 230,427 L 230,483 L 229,484 L 211,484 L 210,483 L 210,426 L 209,425 L 187,425 L 186,424 L 186,413 Z" fill="none" stroke="black" stroke-width="1" /><path d="M 688,409 L 687,410 L 684,410 L 683,411 L 681,411 L 680,412 L 679,412 L 678,413 L 677,413 L 676,414 L 675,414 L 673,416 L 672,416 L 666,422 L 666,423 L 664,425 L 664,426 L 663,427 L 663,428 L 662,429 L 662,431 L 661,432 L 661,433 L 660,434 L 660,437 L 659,438 L 659,457 L 660,458 L 660,461 L 661,462 L 661,463 L 662,464 L 662,466 L 663,467 L 663,468 L 664,469 L 664,470 L 666,472 L 666,473 L 672,479 L 673,479 L 675,481 L 676,481 L 677,482 L 678,482 L 679,483 L 681,483 L 682,484 L 685,484 L 686,485 L 708,485 L 709,484 L 712,484 L 713,483 L 715,483 L 716,482 L 717,482 L 718,481 L 719,481 L 721,479 L 722,479 L 728,473 L 728,472 L 730,470 L 730,469 L 731,468 L 731,466 L 732,465 L 732,464 L 733,463 L 733,460 L 734,459 L 734,437 L 733,436 L 733,432 L 732,431 L 732,430 L 731,429 L 731,427 L 730,426 L 730,425 L 728,423 L 728,422 L 722,416 L 721,416 L 719,414 L 718,414 L 717,413 L 716,413 L 715,412 L 714,412 L 713,411 L 711,411 L 710,410 L 707,410 L 706,409 Z" fill="none" stroke="black" stroke-width="1" /><path d="M 687,410 L 688,409 L 706,409 L 707,410 L 710,410 L 711,411 L 713,411 L 714,412 L 715,412 L 716,413 L 717,413 L 719,415 L 720,415 L 729,424 L 729,425 L 731,427 L 731,429 L 732,430 L 732,431 L 733,432 L 733,436 L 734,437 L 734,459 L 733,460 L 733,463 L 732,464 L 732,465 L 731,466 L 731,468 L 729,470 L 729,471 L 720,480 L 719,480 L 717,482 L 716,482 L 715,483 L 713,483 L 712,484 L 709,484 L 708,485 L 686,485 L 685,484 L 682,484 L 681,483 L 679,483 L 678,482 L 677,482 L 675,480 L 674,480 L 665,471 L 665,470 L 663,468 L 663,467 L 662,466 L 662,464 L 661,463 L 661,462 L 660,461 L 660,458 L 659,457 L 659,438 L 660,437 L 660,434 L 661,433 L 661,432 L 662,431 L 662,429 L 663,428 L 663,427 L 665,425 L 665,424 L 674,415 L 675,415 L 677,413 L 678,413 L 679,412 L 680,412 L 681,411 L 683,411 L 684,410 Z" fill="none" stroke="black" stroke-width="1" /><path d="M 693,423 L 692,424 L 691,424 L 690,425 L 689,425 L 688,426 L 687,426 L 684,429 L 684,430 L 683,431 L 683,432 L 682,433 L 682,434 L 681,435 L 681,436 L 680,437 L 680,441 L 679,442 L 679,453 L 680,454 L 680,458 L 681,459 L 681,460 L 682,461 L 682,462 L 683,463 L 683,464 L 684,465 L 684,466 L 687,469 L 688,469 L 689,470 L 690,470 L 691,471 L 703,471 L 704,470 L 705,470 L 706,469 L 707,469 L 710,466 L 710,465 L 711,464 L 711,463 L 712,462 L 712,461 L 713,460 L 713,456 L 714,455 L 714,440 L 713,439 L 713,435 L 712,434 L 712,433 L 711,432 L 711,431 L 710,430 L 710,429 L 707,426 L 706,426 L 705,425 L 704,425 L 703,424 L 702,424 L 701,423 Z" fill="none" stroke="black" stroke-width="1" /><path d="M 692,424 L 693,423 L 701,423 L 702,424 L 703,424 L 704,425 L 705,425 L 711,431 L 711,432 L 712,433 L 712,434 L 713,435 L 713,439 L 714,440 L 714,455 L 713,456 L 713,460 L 712,461 L 712,462 L 711,463 L 711,464 L 705,470 L 704,470 L 703,471 L 691,471 L 690,470 L 689,470 L 683,464 L 683,463 L 682,462 L 682,461 L 681,460 L 681,459 L 680,458 L 680,454 L 679,453 L 679,442 L 680,441 L 680,437 L 681,436 L 681,435 L 682,434 L 682,433 L 683,432 L 683,431 L 689,425 L 690,425 L 691,424 Z" fill="none" stroke="black" stroke-width="1" /></svg>