<?xml version="1.0" encoding="utf-8" ?>
<svg baseProfile="full" height="1024px" version="1.1" viewBox="0,0,1024,1024" width="1024px" xmlns="http://www.w3.org/2000/svg" xmlns:ev="http://www.w3.org/2001/xml-events" xmlns:xlink="http://www.w3.org/1999/xlink"><defs /><path d="M 565,547 L 564,548 L 563,548 L 563,620 L 614,620 L 614,607 L 613,607 L 612,606 L 582,606 L 581,605 L 581,591 L 583,589 L 611,589 L 612,588 L 612,577 L 610,575 L 582,575 L 581,574 L 581,563 L 583,561 L 613,561 L 613,548 L 612,548 L 611,547 Z" fill="none" stroke="black" stroke-width="1" /><path d="M 565,547 L 611,547 L 613,549 L 613,560 L 612,561 L 583,561 L 581,563 L 581,574 L 582,575 L 610,575 L 612,577 L 612,588 L 611,589 L 583,589 L 581,591 L 581,605 L 582,606 L 612,606 L 614,608 L 614,619 L 613,620 L 564,620 L 563,619 L 563,549 Z" fill="none" stroke="black" stroke-width="1" /><path d="M 479,547 L 478,548 L 478,551 L 479,552 L 479,553 L 480,554 L 480,556 L 481,557 L 481,559 L 482,560 L 482,561 L 483,562 L 483,564 L 484,565 L 484,567 L 485,568 L 485,569 L 486,570 L 486,572 L 487,573 L 487,575 L 488,576 L 488,578 L 489,579 L 489,580 L 490,581 L 490,583 L 491,584 L 491,586 L 492,587 L 492,588 L 493,589 L 493,591 L 494,592 L 494,594 L 495,595 L 495,596 L 496,597 L 496,599 L 497,600 L 497,602 L 498,603 L 498,605 L 499,606 L 499,607 L 500,608 L 500,610 L 501,611 L 501,613 L 502,614 L 502,615 L 503,616 L 503,618 L 504,619 L 504,620 L 527,620 L 527,617 L 528,616 L 528,615 L 529,614 L 529,612 L 530,611 L 530,609 L 531,608 L 531,607 L 532,606 L 532,604 L 533,603 L 533,601 L 534,600 L 534,599 L 535,598 L 535,596 L 536,595 L 536,593 L 537,592 L 537,590 L 538,589 L 538,588 L 539,587 L 539,585 L 540,584 L 540,582 L 541,581 L 541,580 L 542,579 L 542,577 L 543,576 L 543,574 L 544,573 L 544,571 L 545,570 L 545,569 L 546,568 L 546,566 L 547,565 L 547,563 L 548,562 L 548,561 L 549,560 L 549,558 L 550,557 L 550,555 L 551,554 L 551,553 L 552,552 L 552,550 L 553,549 L 553,548 L 552,548 L 551,547 L 536,547 L 535,548 L 534,548 L 534,550 L 533,551 L 533,553 L 532,554 L 532,556 L 531,557 L 531,559 L 530,560 L 530,562 L 529,563 L 529,564 L 528,565 L 528,567 L 527,568 L 527,570 L 526,571 L 526,573 L 525,574 L 525,576 L 524,577 L 524,578 L 523,579 L 523,581 L 522,582 L 522,584 L 521,585 L 521,587 L 520,588 L 520,590 L 519,591 L 519,592 L 518,593 L 518,595 L 517,596 L 517,598 L 516,599 L 516,601 L 516,599 L 517,598 L 517,596 L 518,595 L 518,593 L 519,592 L 519,591 L 520,590 L 520,588 L 521,587 L 521,585 L 522,584 L 522,582 L 523,581 L 523,579 L 524,578 L 524,577 L 525,576 L 525,574 L 526,573 L 526,571 L 527,570 L 527,568 L 528,567 L 528,565 L 529,564 L 529,563 L 530,562 L 530,560 L 531,559 L 531,557 L 532,556 L 532,554 L 533,553 L 533,551 L 534,550 L 534,549 L 536,547 L 551,547 L 553,549 L 552,550 L 552,552 L 551,553 L 551,554 L 550,555 L 550,557 L 549,558 L 549,560 L 548,561 L 548,562 L 547,563 L 547,565 L 546,566 L 546,568 L 545,569 L 545,570 L 544,571 L 544,573 L 543,574 L 543,576 L 542,577 L 542,579 L 541,580 L 541,581 L 540,582 L 540,584 L 539,585 L 539,587 L 538,588 L 538,589 L 537,590 L 537,592 L 536,593 L 536,595 L 535,596 L 535,598 L 534,599 L 534,600 L 533,601 L 533,603 L 532,604 L 532,606 L 531,607 L 531,608 L 530,609 L 530,611 L 529,612 L 529,614 L 528,615 L 528,616 L 527,617 L 527,619 L 526,620 L 505,620 L 503,618 L 503,616 L 502,615 L 502,614 L 501,613 L 501,611 L 500,610 L 500,608 L 499,607 L 499,606 L 498,605 L 498,603 L 497,602 L 497,600 L 496,599 L 496,597 L 495,596 L 495,595 L 494,594 L 494,592 L 493,591 L 493,589 L 492,588 L 492,587 L 491,586 L 491,584 L 490,583 L 490,581 L 489,580 L 489,579 L 488,578 L 488,576 L 487,575 L 487,573 L 486,572 L 486,570 L 485,569 L 485,568 L 484,567 L 484,565 L 483,564 L 483,562 L 482,561 L 482,560 L 481,559 L 481,557 L 480,556 L 480,554 L 479,553 L 479,552 L 478,551 L 478,548 L 479,547 L 494,547 L 497,550 L 497,552 L 498,553 L 498,555 L 499,556 L 499,558 L 500,559 L 500,560 L 501,561 L 501,563 L 502,564 L 502,566 L 503,567 L 503,569 L 504,570 L 504,572 L 505,573 L 505,574 L 506,575 L 506,577 L 507,578 L 507,580 L 508,581 L 508,583 L 509,584 L 509,586 L 510,587 L 510,588 L 511,589 L 511,591 L 512,592 L 512,594 L 513,595 L 513,597 L 514,598 L 514,600 L 514,598 L 513,597 L 513,595 L 512,594 L 512,592 L 511,591 L 511,589 L 510,588 L 510,587 L 509,586 L 509,584 L 508,583 L 508,581 L 507,580 L 507,578 L 506,577 L 506,575 L 505,574 L 505,573 L 504,572 L 504,570 L 503,569 L 503,567 L 502,566 L 502,564 L 501,563 L 501,561 L 500,560 L 500,559 L 499,558 L 499,556 L 498,555 L 498,553 L 497,552 L 497,550 L 496,549 L 496,548 L 495,548 L 494,547 Z" fill="none" stroke="black" stroke-width="1" /><path d="M 346,547 L 345,548 L 344,548 L 344,620 L 395,620 L 395,607 L 394,607 L 393,606 L 363,606 L 362,605 L 362,548 L 361,548 L 360,547 Z" fill="none" stroke="black" stroke-width="1" /><path d="M 346,547 L 360,547 L 362,549 L 362,605 L 363,606 L 393,606 L 395,608 L 395,619 L 394,620 L 345,620 L 344,619 L 344,549 Z" fill="none" stroke="black" stroke-width="1" /><path d="M 428,546 L 427,547 L 424,547 L 423,548 L 421,548 L 420,549 L 418,549 L 416,551 L 415,551 L 413,553 L 412,553 L 407,558 L 407,559 L 405,561 L 405,562 L 404,563 L 404,564 L 403,565 L 403,566 L 402,567 L 402,569 L 401,570 L 401,573 L 400,574 L 400,593 L 401,594 L 401,597 L 402,598 L 402,600 L 403,601 L 403,602 L 404,603 L 404,604 L 405,605 L 405,606 L 407,608 L 407,609 L 412,614 L 413,614 L 415,616 L 416,616 L 418,618 L 420,618 L 421,619 L 423,619 L 424,620 L 427,620 L 428,621 L 446,621 L 447,620 L 450,620 L 451,619 L 453,619 L 454,618 L 456,618 L 458,616 L 459,616 L 461,614 L 462,614 L 467,609 L 467,608 L 469,606 L 469,605 L 470,604 L 470,603 L 471,602 L 471,600 L 472,599 L 472,598 L 473,597 L 473,593 L 474,592 L 474,575 L 473,574 L 473,570 L 472,569 L 472,568 L 471,567 L 471,565 L 470,564 L 470,563 L 469,562 L 469,561 L 467,559 L 467,558 L 462,553 L 461,553 L 459,551 L 458,551 L 456,549 L 454,549 L 453,548 L 451,548 L 450,547 L 447,547 L 446,546 Z" fill="none" stroke="black" stroke-width="1" /><path d="M 427,547 L 428,546 L 446,546 L 447,547 L 450,547 L 451,548 L 453,548 L 454,549 L 455,549 L 457,551 L 458,551 L 460,553 L 461,553 L 467,559 L 467,560 L 469,562 L 469,563 L 471,565 L 471,567 L 472,568 L 472,569 L 473,570 L 473,574 L 474,575 L 474,592 L 473,593 L 473,597 L 472,598 L 472,599 L 471,600 L 471,602 L 469,604 L 469,605 L 467,607 L 467,608 L 461,614 L 460,614 L 458,616 L 457,616 L 455,618 L 454,618 L 453,619 L 451,619 L 450,620 L 447,620 L 446,621 L 428,621 L 427,620 L 424,620 L 423,619 L 421,619 L 420,618 L 419,618 L 417,616 L 416,616 L 414,614 L 413,614 L 407,608 L 407,607 L 405,605 L 405,604 L 403,602 L 403,601 L 402,600 L 402,598 L 401,597 L 401,594 L 400,593 L 400,574 L 401,573 L 401,570 L 402,569 L 402,567 L 403,566 L 403,565 L 405,563 L 405,562 L 407,560 L 407,559 L 413,553 L 414,553 L 416,551 L 417,551 L 419,549 L 420,549 L 421,548 L 423,548 L 424,547 Z" fill="none" stroke="black" stroke-width="1" /><path d="M 431,559 L 430,560 L 428,560 L 422,566 L 422,567 L 421,568 L 421,571 L 420,572 L 420,575 L 419,576 L 419,591 L 420,592 L 420,595 L 421,596 L 421,599 L 422,600 L 422,601 L 428,607 L 430,607 L 431,608 L 443,608 L 444,607 L 446,607 L 452,601 L 452,600 L 453,599 L 453,597 L 454,596 L 454,592 L 455,591 L 455,576 L 454,575 L 454,572 L 453,571 L 453,568 L 452,567 L 452,566 L 446,560 L 444,560 L 443,559 Z" fill="none" stroke="black" stroke-width="1" /><path d="M 430,560 L 431,559 L 443,559 L 444,560 L 445,560 L 452,567 L 452,568 L 453,569 L 453,571 L 454,572 L 454,575 L 455,576 L 455,591 L 454,592 L 454,596 L 453,597 L 453,598 L 452,599 L 452,600 L 445,607 L 444,607 L 443,608 L 431,608 L 430,607 L 429,607 L 422,600 L 422,599 L 421,598 L 421,596 L 420,595 L 420,592 L 419,591 L 419,576 L 420,575 L 420,572 L 421,571 L 421,569 L 422,568 L 422,567 L 429,560 Z" fill="none" stroke="black" stroke-width="1" /><path d="M 647,430 L 646,431 L 645,431 L 645,503 L 663,503 L 663,474 L 665,472 L 689,472 L 691,474 L 691,503 L 710,503 L 710,431 L 709,431 L 708,430 L 693,430 L 692,431 L 691,431 L 691,457 L 690,458 L 664,458 L 663,457 L 663,431 L 662,431 L 661,430 Z" fill="none" stroke="black" stroke-width="1" /><path d="M 647,430 L 661,430 L 663,432 L 663,457 L 664,458 L 691,458 L 691,432 L 693,430 L 708,430 L 710,432 L 710,502 L 709,503 L 692,503 L 691,502 L 691,473 L 690,473 L 689,472 L 665,472 L 663,474 L 663,502 L 662,503 L 646,503 L 645,502 L 645,432 Z" fill="none" stroke="black" stroke-width="1" /><path d="M 484,430 L 483,431 L 482,431 L 482,482 L 483,483 L 483,486 L 484,487 L 484,489 L 485,490 L 485,491 L 486,492 L 486,493 L 488,495 L 488,496 L 490,498 L 491,498 L 493,500 L 494,500 L 495,501 L 496,501 L 497,502 L 499,502 L 500,503 L 503,503 L 504,504 L 522,504 L 523,503 L 526,503 L 527,502 L 529,502 L 530,501 L 531,501 L 532,500 L 533,500 L 535,498 L 536,498 L 539,495 L 539,494 L 540,493 L 540,492 L 541,491 L 541,490 L 542,489 L 542,487 L 543,486 L 543,484 L 544,483 L 544,474 L 545,473 L 545,432 L 543,430 L 528,430 L 527,431 L 526,431 L 526,479 L 525,480 L 525,483 L 524,484 L 524,485 L 519,490 L 507,490 L 502,485 L 502,484 L 501,483 L 501,476 L 500,475 L 500,431 L 499,431 L 498,430 Z" fill="none" stroke="black" stroke-width="1" /><path d="M 484,430 L 498,430 L 500,432 L 500,475 L 501,476 L 501,483 L 502,484 L 502,486 L 505,489 L 506,489 L 507,490 L 519,490 L 520,489 L 521,489 L 524,486 L 524,484 L 525,483 L 525,480 L 526,479 L 526,432 L 528,430 L 543,430 L 545,432 L 545,473 L 544,474 L 544,483 L 543,484 L 543,486 L 542,487 L 542,489 L 540,491 L 540,492 L 539,493 L 539,494 L 535,498 L 534,498 L 532,500 L 531,500 L 529,502 L 527,502 L 526,503 L 523,503 L 522,504 L 504,504 L 503,503 L 500,503 L 499,502 L 497,502 L 495,500 L 494,500 L 492,498 L 491,498 L 488,495 L 488,494 L 486,492 L 486,491 L 484,489 L 484,487 L 483,486 L 483,483 L 482,482 L 482,432 Z" fill="none" stroke="black" stroke-width="1" /><path d="M 428,430 L 427,431 L 426,431 L 426,432 L 425,433 L 425,435 L 424,436 L 424,437 L 423,438 L 423,440 L 422,441 L 422,443 L 421,444 L 421,445 L 420,446 L 420,448 L 419,449 L 419,451 L 418,452 L 418,454 L 417,455 L 417,456 L 416,457 L 416,459 L 415,460 L 415,462 L 414,463 L 414,464 L 413,465 L 413,467 L 412,468 L 412,470 L 411,471 L 411,472 L 410,473 L 410,475 L 409,476 L 409,478 L 408,479 L 408,481 L 407,482 L 407,483 L 406,484 L 406,486 L 405,487 L 405,489 L 404,490 L 404,491 L 403,492 L 403,494 L 402,495 L 402,497 L 401,498 L 401,499 L 400,500 L 400,503 L 418,503 L 418,502 L 419,501 L 419,499 L 420,498 L 420,495 L 421,494 L 421,492 L 424,489 L 450,489 L 451,490 L 452,490 L 453,491 L 453,493 L 454,494 L 454,496 L 455,497 L 455,499 L 456,500 L 456,503 L 475,503 L 475,502 L 474,501 L 474,499 L 473,498 L 473,497 L 472,496 L 472,494 L 471,493 L 471,491 L 470,490 L 470,489 L 469,488 L 469,486 L 468,485 L 468,483 L 467,482 L 467,481 L 466,480 L 466,478 L 465,477 L 465,475 L 464,474 L 464,472 L 463,471 L 463,470 L 462,469 L 462,467 L 461,466 L 461,464 L 460,463 L 460,462 L 459,461 L 459,459 L 458,458 L 458,456 L 457,455 L 457,453 L 456,452 L 456,451 L 455,450 L 455,448 L 454,447 L 454,445 L 453,444 L 453,443 L 452,442 L 452,440 L 451,439 L 451,437 L 450,436 L 450,435 L 449,434 L 449,431 L 447,431 L 446,430 Z" fill="none" stroke="black" stroke-width="1" /><path d="M 428,430 L 446,430 L 447,431 L 448,431 L 449,432 L 449,434 L 450,435 L 450,436 L 451,437 L 451,439 L 452,440 L 452,442 L 453,443 L 453,444 L 454,445 L 454,447 L 455,448 L 455,450 L 456,451 L 456,452 L 457,453 L 457,455 L 458,456 L 458,458 L 459,459 L 459,461 L 460,462 L 460,463 L 461,464 L 461,466 L 462,467 L 462,469 L 463,470 L 463,471 L 464,472 L 464,474 L 465,475 L 465,477 L 466,478 L 466,480 L 467,481 L 467,482 L 468,483 L 468,485 L 469,486 L 469,488 L 470,489 L 470,490 L 471,491 L 471,493 L 472,494 L 472,496 L 473,497 L 473,498 L 474,499 L 474,501 L 475,502 L 474,503 L 457,503 L 456,502 L 456,500 L 455,499 L 455,497 L 454,496 L 454,494 L 453,493 L 453,491 L 452,490 L 451,490 L 450,489 L 424,489 L 423,490 L 422,490 L 422,491 L 421,492 L 421,494 L 420,495 L 420,498 L 419,499 L 419,501 L 417,503 L 401,503 L 400,502 L 400,500 L 401,499 L 401,498 L 402,497 L 402,495 L 403,494 L 403,492 L 404,491 L 404,490 L 405,489 L 405,487 L 406,486 L 406,484 L 407,483 L 407,482 L 408,481 L 408,479 L 409,478 L 409,476 L 410,475 L 410,473 L 411,472 L 411,471 L 412,470 L 412,468 L 413,467 L 413,465 L 414,464 L 414,463 L 415,462 L 415,460 L 416,459 L 416,457 L 417,456 L 417,455 L 418,454 L 418,452 L 419,451 L 419,449 L 420,448 L 420,446 L 421,445 L 421,444 L 422,443 L 422,441 L 423,440 L 423,438 L 424,437 L 424,436 L 425,435 L 425,433 Z" fill="none" stroke="black" stroke-width="1" /><path d="M 438,448 L 438,450 L 439,451 L 439,453 L 440,454 L 440,456 L 441,457 L 441,459 L 442,460 L 442,462 L 443,463 L 443,465 L 444,466 L 444,468 L 445,469 L 445,470 L 446,471 L 446,473 L 447,474 L 447,475 L 446,476 L 429,476 L 428,475 L 428,473 L 429,472 L 429,470 L 430,469 L 430,467 L 431,466 L 431,464 L 432,463 L 432,461 L 433,460 L 433,458 L 434,457 L 434,455 L 435,454 L 435,452 L 436,451 L 436,449 L 436,451 L 435,452 L 435,454 L 434,455 L 434,457 L 433,458 L 433,460 L 432,461 L 432,463 L 431,464 L 431,466 L 430,467 L 430,469 L 429,470 L 429,472 L 428,473 L 428,476 L 447,476 L 447,474 L 446,473 L 446,471 L 445,470 L 445,469 L 444,468 L 444,466 L 443,465 L 443,463 L 442,462 L 442,460 L 441,459 L 441,457 L 440,456 L 440,454 L 439,453 L 439,451 L 438,450 Z" fill="none" stroke="black" stroke-width="1" /><path d="M 346,430 L 345,431 L 344,431 L 344,503 L 395,503 L 395,490 L 394,490 L 393,489 L 363,489 L 362,488 L 362,431 L 361,431 L 360,430 Z" fill="none" stroke="black" stroke-width="1" /><path d="M 346,430 L 360,430 L 362,432 L 362,488 L 363,489 L 393,489 L 395,491 L 395,502 L 394,503 L 345,503 L 344,502 L 344,432 Z" fill="none" stroke="black" stroke-width="1" /><path d="M 590,429 L 589,430 L 585,430 L 584,431 L 582,431 L 581,432 L 580,432 L 579,433 L 577,433 L 576,434 L 575,434 L 573,436 L 572,436 L 565,443 L 565,444 L 563,446 L 563,447 L 562,448 L 562,450 L 561,451 L 561,453 L 560,454 L 560,457 L 559,458 L 559,475 L 560,476 L 560,479 L 561,480 L 561,482 L 562,483 L 562,484 L 563,485 L 563,487 L 565,489 L 565,490 L 572,497 L 573,497 L 575,499 L 576,499 L 577,500 L 578,500 L 579,501 L 581,501 L 582,502 L 584,502 L 585,503 L 588,503 L 589,504 L 609,504 L 610,503 L 614,503 L 615,502 L 618,502 L 619,501 L 621,501 L 622,500 L 624,500 L 625,499 L 626,499 L 627,498 L 628,498 L 628,464 L 627,464 L 626,463 L 601,463 L 600,464 L 599,464 L 599,476 L 608,476 L 610,478 L 610,490 L 609,491 L 593,491 L 592,490 L 590,490 L 588,488 L 587,488 L 582,483 L 582,482 L 581,481 L 581,480 L 580,479 L 580,478 L 579,477 L 579,475 L 578,474 L 578,459 L 579,458 L 579,456 L 580,455 L 580,454 L 581,453 L 581,452 L 582,451 L 582,450 L 587,445 L 588,445 L 589,444 L 590,444 L 591,443 L 592,443 L 593,442 L 611,442 L 612,443 L 614,443 L 615,444 L 617,444 L 618,445 L 620,445 L 622,447 L 625,447 L 626,446 L 626,436 L 625,435 L 625,433 L 622,433 L 621,432 L 619,432 L 618,431 L 616,431 L 615,430 L 611,430 L 610,429 Z" fill="none" stroke="black" stroke-width="1" /><path d="M 589,430 L 590,429 L 610,429 L 611,430 L 615,430 L 616,431 L 618,431 L 619,432 L 621,432 L 622,433 L 624,433 L 625,434 L 625,435 L 626,436 L 626,446 L 625,447 L 623,447 L 622,446 L 621,446 L 620,445 L 618,445 L 617,444 L 615,444 L 614,443 L 612,443 L 611,442 L 593,442 L 592,443 L 590,443 L 589,444 L 588,444 L 587,445 L 586,445 L 582,449 L 582,450 L 581,451 L 581,452 L 580,453 L 580,455 L 579,456 L 579,458 L 578,459 L 578,474 L 579,475 L 579,477 L 580,478 L 580,480 L 581,481 L 581,482 L 582,483 L 582,484 L 586,488 L 587,488 L 588,489 L 589,489 L 590,490 L 592,490 L 593,491 L 609,491 L 610,490 L 610,477 L 609,477 L 608,476 L 600,476 L 599,475 L 599,465 L 601,463 L 626,463 L 628,465 L 628,497 L 626,499 L 625,499 L 624,500 L 622,500 L 621,501 L 619,501 L 618,502 L 615,502 L 614,503 L 610,503 L 609,504 L 589,504 L 588,503 L 585,503 L 584,502 L 582,502 L 581,501 L 579,501 L 577,499 L 576,499 L 574,497 L 573,497 L 565,489 L 565,488 L 563,486 L 563,485 L 562,484 L 562,483 L 561,482 L 561,480 L 560,479 L 560,476 L 559,475 L 559,458 L 560,457 L 560,454 L 561,453 L 561,451 L 562,450 L 562,449 L 563,448 L 563,447 L 565,445 L 565,444 L 573,436 L 574,436 L 576,434 L 577,434 L 578,433 L 579,433 L 580,432 L 581,432 L 582,431 L 584,431 L 585,430 Z" fill="none" stroke="black" stroke-width="1" /><path d="M 524,313 L 523,314 L 522,314 L 522,386 L 573,386 L 573,373 L 572,373 L 571,372 L 541,372 L 540,371 L 540,357 L 542,355 L 570,355 L 571,354 L 571,343 L 569,341 L 541,341 L 540,340 L 540,329 L 542,327 L 572,327 L 572,314 L 571,314 L 570,313 Z" fill="none" stroke="black" stroke-width="1" /><path d="M 524,313 L 570,313 L 572,315 L 572,326 L 571,327 L 542,327 L 540,329 L 540,340 L 541,341 L 569,341 L 571,343 L 571,354 L 570,355 L 542,355 L 540,357 L 540,371 L 541,372 L 571,372 L 573,374 L 573,385 L 572,386 L 523,386 L 522,385 L 522,315 Z" fill="none" stroke="black" stroke-width="1" /><path d="M 438,313 L 437,314 L 437,317 L 438,318 L 438,319 L 439,320 L 439,322 L 440,323 L 440,325 L 441,326 L 441,327 L 442,328 L 442,330 L 443,331 L 443,333 L 444,334 L 444,335 L 445,336 L 445,338 L 446,339 L 446,341 L 447,342 L 447,344 L 448,345 L 448,346 L 449,347 L 449,349 L 450,350 L 450,352 L 451,353 L 451,354 L 452,355 L 452,357 L 453,358 L 453,360 L 454,361 L 454,362 L 455,363 L 455,365 L 456,366 L 456,368 L 457,369 L 457,371 L 458,372 L 458,373 L 459,374 L 459,376 L 460,377 L 460,379 L 461,380 L 461,381 L 462,382 L 462,384 L 463,385 L 463,386 L 486,386 L 486,383 L 487,382 L 487,381 L 488,380 L 488,378 L 489,377 L 489,375 L 490,374 L 490,373 L 491,372 L 491,370 L 492,369 L 492,367 L 493,366 L 493,365 L 494,364 L 494,362 L 495,361 L 495,359 L 496,358 L 496,356 L 497,355 L 497,354 L 498,353 L 498,351 L 499,350 L 499,348 L 500,347 L 500,346 L 501,345 L 501,343 L 502,342 L 502,340 L 503,339 L 503,337 L 504,336 L 504,335 L 505,334 L 505,332 L 506,331 L 506,329 L 507,328 L 507,327 L 508,326 L 508,324 L 509,323 L 509,321 L 510,320 L 510,319 L 511,318 L 511,316 L 512,315 L 512,314 L 511,314 L 510,313 L 495,313 L 494,314 L 493,314 L 493,316 L 492,317 L 492,319 L 491,320 L 491,322 L 490,323 L 490,325 L 489,326 L 489,328 L 488,329 L 488,330 L 487,331 L 487,333 L 486,334 L 486,336 L 485,337 L 485,339 L 484,340 L 484,342 L 483,343 L 483,344 L 482,345 L 482,347 L 481,348 L 481,350 L 480,351 L 480,353 L 479,354 L 479,356 L 478,357 L 478,358 L 477,359 L 477,361 L 476,362 L 476,364 L 475,365 L 475,367 L 475,365 L 476,364 L 476,362 L 477,361 L 477,359 L 478,358 L 478,357 L 479,356 L 479,354 L 480,353 L 480,351 L 481,350 L 481,348 L 482,347 L 482,345 L 483,344 L 483,343 L 484,342 L 484,340 L 485,339 L 485,337 L 486,336 L 486,334 L 487,333 L 487,331 L 488,330 L 488,329 L 489,328 L 489,326 L 490,325 L 490,323 L 491,322 L 491,320 L 492,319 L 492,317 L 493,316 L 493,315 L 495,313 L 510,313 L 512,315 L 511,316 L 511,318 L 510,319 L 510,320 L 509,321 L 509,323 L 508,324 L 508,326 L 507,327 L 507,328 L 506,329 L 506,331 L 505,332 L 505,334 L 504,335 L 504,336 L 503,337 L 503,339 L 502,340 L 502,342 L 501,343 L 501,345 L 500,346 L 500,347 L 499,348 L 499,350 L 498,351 L 498,353 L 497,354 L 497,355 L 496,356 L 496,358 L 495,359 L 495,361 L 494,362 L 494,364 L 493,365 L 493,366 L 492,367 L 492,369 L 491,370 L 491,372 L 490,373 L 490,374 L 489,375 L 489,377 L 488,378 L 488,380 L 487,381 L 487,382 L 486,383 L 486,385 L 485,386 L 464,386 L 462,384 L 462,382 L 461,381 L 461,380 L 460,379 L 460,377 L 459,376 L 459,374 L 458,373 L 458,372 L 457,371 L 457,369 L 456,368 L 456,366 L 455,365 L 455,363 L 454,362 L 454,361 L 453,360 L 453,358 L 452,357 L 452,355 L 451,354 L 451,353 L 450,352 L 450,350 L 449,349 L 449,347 L 448,346 L 448,345 L 447,344 L 447,342 L 446,341 L 446,339 L 445,338 L 445,336 L 444,335 L 444,334 L 443,333 L 443,331 L 442,330 L 442,328 L 441,327 L 441,326 L 440,325 L 440,323 L 439,322 L 439,320 L 438,319 L 438,318 L 437,317 L 437,314 L 438,313 L 453,313 L 456,316 L 456,318 L 457,319 L 457,321 L 458,322 L 458,324 L 459,325 L 459,326 L 460,327 L 460,329 L 461,330 L 461,332 L 462,333 L 462,335 L 463,336 L 463,338 L 464,339 L 464,340 L 465,341 L 465,343 L 466,344 L 466,346 L 467,347 L 467,349 L 468,350 L 468,352 L 469,353 L 469,354 L 470,355 L 470,357 L 471,358 L 471,360 L 472,361 L 472,363 L 473,364 L 473,366 L 473,364 L 472,363 L 472,361 L 471,360 L 471,358 L 470,357 L 470,355 L 469,354 L 469,353 L 468,352 L 468,350 L 467,349 L 467,347 L 466,346 L 466,344 L 465,343 L 465,341 L 464,340 L 464,339 L 463,338 L 463,336 L 462,335 L 462,333 L 461,332 L 461,330 L 460,329 L 460,327 L 459,326 L 459,325 L 458,324 L 458,322 L 457,321 L 457,319 L 456,318 L 456,316 L 455,315 L 455,314 L 454,314 L 453,313 Z" fill="none" stroke="black" stroke-width="1" /><path d="M 410,313 L 409,314 L 408,314 L 408,386 L 426,386 L 426,314 L 425,314 L 424,313 Z" fill="none" stroke="black" stroke-width="1" /><path d="M 410,313 L 424,313 L 426,315 L 426,385 L 425,386 L 409,386 L 408,385 L 408,315 Z" fill="none" stroke="black" stroke-width="1" /><path d="M 346,313 L 345,314 L 344,314 L 344,386 L 395,386 L 395,373 L 394,373 L 393,372 L 363,372 L 362,371 L 362,314 L 361,314 L 360,313 Z" fill="none" stroke="black" stroke-width="1" /><path d="M 346,313 L 360,313 L 362,315 L 362,371 L 363,372 L 393,372 L 395,374 L 395,385 L 394,386 L 345,386 L 344,385 L 344,315 Z" fill="none" stroke="black" stroke-width="1" /></svg>