<?xml version="1.0" encoding="utf-8" ?>
<svg baseProfile="full" height="720px" version="1.1" viewBox="0,0,1280,720" width="1280px" xmlns="http://www.w3.org/2000/svg" xmlns:ev="http://www.w3.org/2001/xml-events" xmlns:xlink="http://www.w3.org/1999/xlink"><defs /><path d="M 755,699 L 753,701 L 753,702 L 750,705 L 747,705 L 746,704 L 746,703 L 746,705 L 745,706 L 745,707 L 743,709 L 741,709 L 740,710 L 740,712 L 739,713 L 738,713 L 734,717 L 733,717 L 732,718 L 728,718 L 733,718 L 735,716 L 736,716 L 739,713 L 744,713 L 744,712 L 743,713 L 741,713 L 740,712 L 740,711 L 742,709 L 744,709 L 745,708 L 747,710 L 748,710 L 748,709 L 749,708 L 750,708 L 750,706 L 753,703 L 753,702 L 756,699 L 757,699 Z" fill="none" stroke="black" stroke-width="1" /><path d="M 747,705 L 749,705 L 750,706 L 750,707 L 749,708 L 748,708 L 747,709 L 746,709 L 745,708 L 745,707 Z" fill="none" stroke="black" stroke-width="1" /><path d="M 519,696 L 520,697 L 520,698 L 519,699 L 520,698 L 521,699 L 522,699 L 525,702 L 525,703 L 526,704 L 527,704 L 529,706 L 530,706 L 531,707 L 533,707 L 539,713 L 541,713 L 542,714 L 542,715 L 544,717 L 544,718 L 549,718 L 550,719 L 550,718 L 545,718 L 543,716 L 543,715 L 544,714 L 546,714 L 547,715 L 547,716 L 548,715 L 547,714 L 544,714 L 543,715 L 542,714 L 542,712 L 541,713 L 540,713 L 534,707 L 532,707 L 531,706 L 530,706 L 528,704 L 527,704 L 525,702 L 525,701 L 523,699 L 522,699 Z" fill="none" stroke="black" stroke-width="1" /><path d="M 774,686 L 773,687 L 773,688 L 771,690 L 771,691 L 770,692 L 769,691 L 768,692 L 768,693 L 767,694 L 766,694 L 762,698 L 761,698 L 760,699 L 759,699 L 759,701 L 757,703 L 755,703 L 758,703 L 759,702 L 759,700 L 761,698 L 763,698 L 767,694 L 768,694 L 768,693 L 769,692 L 770,693 L 771,692 L 771,691 L 773,689 L 773,688 L 775,686 L 776,686 Z" fill="none" stroke="black" stroke-width="1" /><path d="M 859,681 L 860,682 L 858,684 L 857,684 L 856,683 L 854,683 L 856,683 L 857,684 L 858,684 L 859,683 L 860,684 L 861,684 L 862,685 L 870,685 L 871,686 L 872,686 L 873,687 L 874,687 L 875,688 L 880,688 L 881,689 L 882,689 L 883,690 L 885,690 L 886,689 L 887,690 L 888,690 L 890,692 L 891,692 L 892,693 L 893,693 L 894,694 L 896,694 L 899,697 L 900,697 L 901,698 L 902,698 L 903,699 L 905,699 L 906,700 L 906,701 L 907,702 L 913,702 L 914,703 L 914,704 L 913,705 L 917,705 L 918,706 L 920,706 L 921,705 L 923,707 L 924,706 L 929,706 L 930,707 L 936,707 L 937,706 L 939,706 L 940,707 L 941,707 L 942,708 L 949,708 L 950,707 L 952,707 L 953,706 L 954,707 L 954,709 L 955,710 L 958,710 L 958,709 L 959,708 L 960,709 L 967,709 L 968,710 L 971,710 L 972,711 L 974,711 L 975,712 L 976,712 L 977,713 L 978,713 L 979,714 L 983,714 L 985,716 L 985,717 L 986,718 L 986,719 L 986,718 L 985,717 L 985,716 L 986,715 L 987,715 L 990,718 L 992,718 L 993,719 L 993,718 L 991,718 L 988,715 L 985,715 L 984,714 L 979,714 L 977,712 L 975,712 L 974,711 L 972,711 L 971,710 L 969,710 L 968,709 L 960,709 L 958,707 L 956,707 L 958,707 L 959,708 L 957,710 L 956,710 L 954,708 L 954,706 L 952,706 L 951,707 L 950,707 L 949,708 L 942,708 L 941,707 L 940,707 L 939,706 L 937,706 L 936,707 L 930,707 L 929,706 L 924,706 L 923,707 L 921,705 L 920,706 L 919,706 L 918,705 L 915,705 L 914,704 L 914,702 L 908,702 L 905,699 L 904,699 L 902,697 L 901,698 L 897,694 L 895,694 L 894,693 L 892,693 L 890,691 L 889,691 L 888,690 L 887,690 L 886,689 L 885,690 L 883,690 L 882,689 L 881,689 L 880,688 L 876,688 L 875,687 L 873,687 L 872,686 L 871,686 L 870,685 L 863,685 L 862,684 L 861,684 L 860,683 L 860,681 Z" fill="none" stroke="black" stroke-width="1" /><path d="M 779,680 L 778,681 L 778,682 L 777,683 L 776,683 L 776,684 L 780,680 Z" fill="none" stroke="black" stroke-width="1" /><path d="M 668,677 L 669,678 L 677,678 L 678,679 L 680,679 L 681,678 L 683,678 L 681,678 L 680,679 L 679,679 L 678,678 L 670,678 L 669,677 Z" fill="none" stroke="black" stroke-width="1" /><path d="M 718,674 L 715,677 L 710,677 L 708,679 L 707,678 L 706,678 L 707,678 L 708,679 L 709,678 L 710,678 L 711,677 L 715,677 L 716,678 L 716,677 L 717,676 L 718,677 L 717,676 L 718,675 Z" fill="none" stroke="black" stroke-width="1" /><path d="M 782,673 L 782,675 L 781,676 L 780,676 L 782,676 Z" fill="none" stroke="black" stroke-width="1" /><path d="M 635,665 L 635,666 L 636,667 L 636,669 L 636,667 L 637,666 L 638,666 L 640,668 L 642,668 L 643,669 L 644,669 L 645,670 L 647,670 L 648,671 L 650,671 L 652,673 L 655,673 L 657,675 L 663,675 L 664,676 L 666,676 L 664,676 L 663,675 L 658,675 L 657,674 L 656,674 L 655,673 L 653,673 L 651,671 L 648,671 L 647,670 L 646,670 L 645,669 L 643,669 L 642,668 L 641,668 L 640,667 L 639,667 L 638,666 L 636,666 Z" fill="none" stroke="black" stroke-width="1" /><path d="M 600,644 L 599,645 L 600,644 L 603,644 L 605,646 L 605,648 L 606,649 L 612,649 L 614,651 L 614,652 L 616,652 L 617,653 L 617,658 L 623,658 L 624,659 L 625,659 L 626,660 L 628,660 L 629,661 L 630,661 L 632,663 L 631,664 L 631,666 L 632,666 L 631,665 L 631,664 L 632,663 L 632,662 L 631,661 L 629,661 L 628,660 L 627,660 L 626,659 L 624,659 L 622,657 L 621,658 L 619,658 L 617,656 L 617,652 L 615,652 L 613,650 L 613,649 L 607,649 L 605,647 L 605,645 L 604,644 Z" fill="none" stroke="black" stroke-width="1" /><path d="M 786,640 L 785,641 L 785,644 L 786,645 L 786,653 L 787,654 L 786,655 L 786,656 L 787,657 L 786,658 L 787,659 L 787,662 L 786,663 L 786,665 L 787,666 L 787,668 L 785,670 L 785,671 L 786,670 L 786,669 L 787,668 L 787,666 L 786,665 L 786,663 L 787,662 L 787,657 L 786,656 L 786,655 L 787,654 L 786,653 L 786,645 L 785,644 L 785,642 L 787,640 Z" fill="none" stroke="black" stroke-width="1" /><path d="M 517,622 L 516,623 L 514,623 L 513,624 L 510,624 L 509,625 L 505,625 L 504,626 L 501,626 L 499,628 L 497,628 L 496,629 L 495,629 L 494,630 L 492,630 L 488,634 L 487,634 L 484,637 L 484,638 L 482,640 L 482,641 L 480,643 L 480,645 L 479,646 L 479,648 L 478,649 L 478,652 L 474,656 L 470,656 L 469,657 L 463,657 L 462,658 L 458,658 L 457,659 L 455,659 L 454,660 L 453,660 L 452,661 L 448,661 L 446,663 L 445,663 L 443,665 L 441,665 L 438,668 L 437,668 L 435,670 L 433,670 L 432,671 L 424,671 L 423,672 L 420,672 L 419,673 L 413,673 L 412,674 L 409,674 L 408,675 L 403,675 L 402,674 L 399,677 L 396,677 L 395,678 L 391,678 L 390,679 L 387,679 L 384,682 L 383,682 L 382,683 L 381,683 L 379,685 L 376,685 L 375,686 L 371,686 L 368,689 L 366,689 L 365,690 L 364,690 L 362,692 L 357,692 L 356,693 L 354,693 L 353,694 L 349,694 L 348,695 L 347,695 L 346,696 L 342,696 L 341,697 L 339,697 L 338,698 L 336,698 L 335,699 L 332,699 L 331,700 L 320,700 L 319,701 L 306,701 L 305,702 L 294,702 L 293,701 L 292,702 L 285,702 L 284,703 L 277,703 L 276,704 L 267,704 L 266,705 L 263,705 L 262,706 L 259,706 L 258,707 L 254,707 L 253,708 L 250,708 L 249,709 L 241,709 L 240,710 L 236,710 L 235,711 L 232,711 L 231,712 L 227,712 L 226,713 L 223,713 L 222,714 L 220,714 L 219,715 L 218,714 L 217,715 L 213,715 L 212,716 L 211,716 L 210,717 L 209,717 L 208,718 L 205,718 L 204,717 L 203,718 L 202,717 L 201,718 L 198,718 L 203,718 L 204,717 L 205,718 L 208,718 L 209,717 L 211,717 L 213,715 L 219,715 L 220,714 L 221,714 L 222,715 L 224,713 L 226,713 L 227,712 L 228,713 L 229,712 L 231,712 L 232,711 L 235,711 L 236,710 L 241,710 L 242,709 L 249,709 L 250,708 L 253,708 L 254,707 L 258,707 L 259,706 L 262,706 L 263,705 L 266,705 L 267,704 L 276,704 L 277,703 L 284,703 L 285,702 L 292,702 L 293,701 L 294,702 L 305,702 L 306,701 L 319,701 L 320,700 L 331,700 L 332,699 L 335,699 L 336,698 L 338,698 L 339,697 L 341,697 L 342,696 L 346,696 L 347,695 L 348,695 L 349,694 L 353,694 L 354,693 L 356,693 L 357,692 L 362,692 L 363,691 L 364,691 L 365,690 L 366,690 L 367,689 L 368,689 L 369,688 L 370,688 L 372,686 L 375,686 L 376,685 L 380,685 L 383,682 L 385,682 L 388,679 L 390,679 L 391,678 L 395,678 L 396,677 L 399,677 L 400,676 L 401,676 L 402,675 L 408,675 L 409,674 L 413,674 L 414,673 L 419,673 L 420,672 L 423,672 L 424,671 L 432,671 L 433,670 L 436,670 L 438,668 L 439,668 L 442,665 L 444,665 L 446,663 L 447,663 L 449,661 L 452,661 L 453,660 L 454,660 L 455,659 L 457,659 L 458,658 L 462,658 L 463,657 L 469,657 L 470,656 L 474,656 L 475,655 L 476,655 L 478,653 L 478,649 L 479,648 L 479,646 L 480,645 L 480,644 L 482,642 L 482,641 L 484,639 L 484,638 L 488,634 L 489,634 L 493,630 L 494,630 L 495,629 L 497,629 L 498,628 L 499,628 L 500,627 L 501,627 L 502,626 L 504,626 L 505,625 L 509,625 L 510,624 L 513,624 L 514,623 L 516,623 L 517,622 L 518,623 L 521,623 L 522,622 L 526,622 L 527,623 L 527,624 L 525,626 L 525,627 L 522,630 L 522,632 L 517,637 L 517,638 L 513,642 L 513,644 L 510,647 L 510,648 L 508,650 L 507,650 L 506,651 L 506,653 L 503,656 L 502,656 L 501,657 L 500,657 L 499,658 L 499,660 L 499,658 L 500,657 L 502,657 L 503,656 L 504,656 L 506,654 L 506,652 L 508,650 L 509,650 L 510,649 L 510,648 L 513,645 L 513,643 L 517,639 L 517,638 L 522,633 L 522,631 L 525,628 L 525,627 L 526,626 L 526,625 L 527,624 L 527,622 L 522,622 L 521,623 L 518,623 Z" fill="none" stroke="black" stroke-width="1" /><path d="M 568,608 L 569,609 L 571,609 L 575,613 L 576,613 L 577,614 L 577,618 L 578,618 L 580,620 L 580,621 L 582,621 L 583,622 L 583,623 L 586,626 L 586,627 L 585,628 L 586,627 L 587,628 L 588,628 L 589,629 L 588,630 L 586,630 L 586,631 L 585,632 L 587,632 L 588,633 L 589,633 L 590,632 L 592,632 L 595,635 L 595,637 L 596,637 L 597,638 L 598,638 L 602,642 L 602,641 L 599,638 L 598,638 L 597,637 L 596,637 L 595,636 L 595,635 L 596,634 L 595,634 L 593,632 L 590,632 L 589,633 L 588,632 L 587,632 L 586,631 L 587,630 L 588,630 L 589,629 L 589,628 L 588,628 L 586,626 L 586,625 L 583,622 L 583,621 L 581,621 L 580,620 L 580,619 L 579,618 L 578,618 L 577,617 L 577,613 L 576,613 L 572,609 L 570,609 L 569,608 Z" fill="none" stroke="black" stroke-width="1" /><path d="M 531,472 L 531,473 L 530,474 L 530,475 L 530,474 L 531,473 L 532,473 L 533,474 L 533,475 L 535,477 L 535,488 L 536,489 L 536,492 L 535,493 L 535,497 L 534,498 L 535,499 L 535,511 L 534,512 L 534,515 L 535,516 L 535,526 L 536,527 L 536,535 L 537,536 L 537,546 L 538,547 L 538,548 L 537,549 L 537,556 L 538,557 L 538,559 L 537,560 L 537,561 L 536,562 L 536,567 L 537,568 L 537,572 L 536,573 L 536,578 L 536,575 L 537,574 L 536,573 L 537,572 L 537,567 L 536,566 L 536,562 L 538,560 L 538,557 L 537,556 L 538,555 L 539,555 L 538,555 L 537,554 L 537,550 L 538,549 L 538,546 L 537,545 L 537,536 L 536,535 L 536,527 L 535,526 L 535,516 L 534,515 L 534,513 L 535,512 L 535,499 L 534,498 L 535,497 L 535,493 L 536,492 L 536,489 L 535,488 L 535,477 L 534,476 L 534,475 Z" fill="none" stroke="black" stroke-width="1" /><path d="M 844,387 L 843,388 L 844,389 L 843,390 L 843,392 L 844,393 L 844,395 L 845,396 L 845,409 L 846,410 L 846,423 L 847,424 L 847,446 L 846,447 L 846,458 L 845,459 L 845,465 L 844,466 L 844,469 L 843,470 L 843,474 L 842,475 L 842,479 L 841,480 L 841,483 L 840,484 L 840,488 L 839,489 L 839,490 L 838,491 L 838,497 L 837,498 L 837,499 L 836,500 L 836,506 L 835,507 L 835,522 L 833,524 L 833,528 L 832,529 L 832,535 L 830,537 L 829,537 L 829,540 L 828,541 L 828,548 L 827,549 L 827,550 L 826,551 L 826,554 L 825,555 L 825,556 L 824,557 L 824,559 L 823,560 L 823,561 L 822,562 L 822,563 L 821,564 L 821,571 L 820,572 L 820,573 L 819,574 L 819,576 L 818,577 L 818,579 L 817,580 L 817,582 L 815,584 L 815,588 L 813,590 L 813,593 L 812,594 L 812,596 L 811,597 L 811,599 L 810,600 L 810,601 L 809,602 L 809,603 L 808,604 L 808,605 L 807,606 L 807,608 L 804,611 L 804,614 L 803,615 L 803,616 L 801,618 L 801,619 L 800,620 L 800,623 L 799,624 L 799,626 L 798,627 L 797,626 L 797,624 L 797,625 L 795,627 L 795,629 L 794,630 L 794,632 L 793,633 L 793,634 L 792,635 L 791,634 L 791,635 L 793,637 L 793,639 L 794,640 L 794,641 L 796,643 L 796,645 L 798,647 L 798,653 L 799,654 L 799,657 L 800,658 L 807,658 L 808,659 L 814,659 L 816,661 L 817,661 L 818,662 L 821,662 L 822,663 L 823,663 L 824,664 L 825,664 L 826,665 L 828,665 L 829,666 L 830,666 L 833,669 L 833,670 L 835,670 L 837,672 L 837,673 L 839,673 L 840,674 L 841,674 L 845,678 L 846,678 L 847,679 L 849,679 L 852,682 L 853,681 L 856,681 L 852,681 L 851,680 L 850,680 L 849,679 L 848,679 L 847,678 L 846,678 L 842,674 L 841,674 L 840,673 L 838,673 L 837,672 L 837,671 L 836,670 L 834,670 L 833,669 L 833,668 L 831,666 L 829,666 L 828,665 L 827,665 L 826,664 L 824,664 L 823,663 L 822,663 L 821,662 L 819,662 L 818,661 L 817,661 L 816,660 L 815,660 L 814,659 L 808,659 L 807,658 L 801,658 L 799,656 L 799,653 L 798,652 L 798,647 L 797,646 L 797,645 L 796,644 L 796,642 L 794,640 L 794,639 L 793,638 L 793,637 L 792,636 L 792,635 L 794,633 L 794,631 L 795,630 L 795,628 L 797,626 L 798,627 L 799,627 L 799,624 L 800,623 L 800,621 L 801,620 L 801,618 L 803,616 L 803,615 L 804,614 L 804,612 L 807,609 L 807,607 L 808,606 L 808,604 L 810,602 L 810,600 L 811,599 L 811,597 L 812,596 L 812,595 L 813,594 L 813,591 L 815,589 L 815,585 L 817,583 L 817,581 L 818,580 L 819,581 L 819,582 L 820,582 L 818,580 L 818,577 L 819,576 L 819,575 L 820,574 L 820,572 L 821,571 L 821,565 L 822,564 L 822,563 L 823,562 L 823,560 L 824,559 L 824,558 L 825,557 L 825,555 L 826,554 L 826,552 L 827,551 L 827,549 L 828,548 L 828,541 L 829,540 L 829,538 L 830,537 L 831,537 L 831,536 L 832,535 L 832,529 L 833,528 L 833,525 L 835,523 L 835,507 L 836,506 L 836,500 L 837,499 L 837,498 L 838,497 L 838,492 L 839,491 L 839,489 L 840,488 L 840,485 L 841,484 L 841,480 L 842,479 L 842,477 L 843,476 L 842,475 L 843,474 L 843,470 L 844,469 L 844,466 L 845,465 L 845,459 L 846,458 L 846,447 L 847,446 L 847,424 L 846,423 L 846,410 L 845,409 L 845,395 L 844,394 L 844,393 L 843,392 L 843,390 L 844,389 L 845,389 L 844,389 L 843,388 L 844,387 L 845,387 Z" fill="none" stroke="black" stroke-width="1" /><path d="M 630,376 L 630,379 L 631,380 L 635,380 L 635,379 L 636,378 L 636,376 Z" fill="none" stroke="black" stroke-width="1" /><path d="M 630,377 L 631,376 L 635,376 L 636,377 L 636,378 L 634,380 L 632,380 L 630,378 Z" fill="none" stroke="black" stroke-width="1" /><path d="M 780,374 L 779,375 L 778,375 L 778,377 L 779,378 L 780,378 L 781,379 L 784,379 L 785,378 L 784,377 L 785,376 L 783,374 Z" fill="none" stroke="black" stroke-width="1" /><path d="M 780,374 L 782,374 L 784,376 L 784,378 L 783,379 L 781,379 L 778,376 Z" fill="none" stroke="black" stroke-width="1" /><path d="M 645,370 L 645,373 L 646,374 L 646,379 L 645,380 L 645,381 L 644,382 L 644,383 L 641,386 L 640,386 L 636,390 L 634,390 L 633,391 L 628,391 L 627,390 L 626,390 L 625,389 L 623,389 L 619,385 L 619,384 L 617,382 L 617,381 L 616,380 L 616,378 L 615,377 L 615,371 L 615,377 L 616,378 L 616,380 L 617,381 L 617,382 L 618,383 L 618,384 L 619,385 L 619,386 L 622,389 L 624,389 L 625,390 L 627,390 L 628,391 L 633,391 L 634,390 L 636,390 L 637,389 L 638,389 L 641,386 L 642,386 L 644,384 L 644,383 L 645,382 L 645,381 L 646,380 L 646,374 L 645,373 L 645,372 L 646,371 L 647,371 L 648,370 L 649,370 L 650,371 L 652,371 L 653,372 L 654,372 L 653,372 L 652,371 L 650,371 L 649,370 L 648,370 L 647,371 L 646,371 Z" fill="none" stroke="black" stroke-width="1" /><path d="M 797,368 L 796,369 L 796,370 L 797,371 L 797,373 L 798,374 L 797,375 L 797,379 L 796,380 L 796,381 L 795,382 L 795,383 L 794,384 L 793,384 L 789,388 L 783,388 L 782,389 L 779,389 L 778,388 L 777,388 L 774,385 L 773,385 L 772,384 L 771,384 L 769,382 L 769,381 L 768,380 L 768,377 L 767,376 L 767,375 L 768,374 L 768,371 L 767,371 L 768,372 L 768,374 L 766,376 L 767,376 L 768,377 L 768,381 L 769,382 L 769,383 L 770,384 L 771,384 L 772,385 L 773,385 L 776,388 L 777,388 L 778,389 L 783,389 L 784,388 L 788,388 L 789,389 L 794,384 L 795,384 L 795,383 L 796,382 L 796,381 L 797,380 L 797,375 L 798,374 L 797,373 L 797,371 L 798,370 L 797,370 L 796,369 L 797,368 L 801,368 L 802,369 L 803,369 L 802,368 Z" fill="none" stroke="black" stroke-width="1" /><path d="M 626,368 L 623,371 L 623,372 L 626,369 L 628,369 L 630,371 L 629,372 L 628,372 L 625,375 L 626,376 L 626,375 L 629,372 L 630,372 L 631,371 L 632,372 L 631,371 L 630,371 L 629,370 L 629,369 L 627,369 Z" fill="none" stroke="black" stroke-width="1" /><path d="M 488,365 L 488,366 L 487,367 L 486,367 L 487,368 L 487,370 L 486,371 L 486,377 L 487,378 L 487,383 L 488,384 L 487,385 L 488,384 L 489,385 L 489,389 L 488,390 L 489,391 L 489,392 L 490,393 L 490,394 L 491,395 L 491,398 L 492,399 L 492,402 L 493,403 L 493,404 L 494,405 L 494,409 L 495,410 L 495,411 L 497,413 L 496,414 L 496,416 L 497,417 L 497,422 L 498,423 L 498,424 L 499,425 L 499,427 L 500,428 L 500,431 L 501,432 L 501,433 L 502,434 L 502,435 L 504,435 L 505,436 L 507,436 L 512,441 L 512,442 L 514,442 L 515,441 L 517,441 L 519,443 L 521,443 L 522,444 L 523,444 L 524,445 L 525,445 L 526,446 L 527,446 L 528,447 L 528,449 L 529,449 L 530,450 L 532,450 L 533,451 L 533,452 L 533,450 L 531,450 L 530,449 L 529,449 L 528,448 L 528,446 L 527,446 L 526,445 L 524,445 L 522,443 L 520,443 L 519,442 L 518,442 L 516,440 L 515,441 L 514,441 L 513,442 L 512,441 L 512,440 L 509,437 L 508,437 L 507,436 L 505,436 L 504,435 L 503,435 L 501,433 L 501,431 L 500,430 L 500,428 L 499,427 L 499,425 L 498,424 L 498,423 L 497,422 L 497,417 L 496,416 L 496,415 L 497,414 L 497,413 L 496,412 L 496,411 L 495,410 L 495,409 L 494,408 L 494,405 L 493,404 L 493,402 L 492,401 L 492,399 L 491,398 L 491,395 L 490,394 L 490,393 L 489,392 L 489,391 L 490,390 L 489,389 L 489,385 L 487,383 L 487,378 L 486,377 L 486,371 L 487,370 L 487,369 L 488,368 L 487,367 L 488,366 Z" fill="none" stroke="black" stroke-width="1" /><path d="M 634,362 L 633,363 L 629,363 L 628,364 L 627,364 L 626,363 L 625,364 L 624,363 L 623,363 L 623,364 L 622,365 L 620,365 L 619,366 L 615,366 L 614,367 L 613,367 L 612,368 L 612,369 L 614,367 L 615,367 L 616,366 L 620,366 L 621,365 L 622,365 L 624,363 L 625,364 L 625,366 L 626,366 L 625,365 L 625,364 L 626,363 L 627,364 L 628,364 L 629,363 L 634,363 L 635,362 Z" fill="none" stroke="black" stroke-width="1" /><path d="M 537,346 L 536,347 L 536,348 L 537,349 L 537,350 L 536,351 L 537,352 L 537,369 L 536,370 L 536,375 L 534,377 L 532,377 L 532,378 L 531,379 L 532,379 L 532,378 L 533,377 L 534,378 L 534,379 L 535,380 L 535,381 L 534,382 L 534,383 L 533,384 L 532,384 L 531,385 L 530,385 L 531,385 L 532,384 L 533,384 L 534,383 L 535,384 L 535,385 L 533,387 L 534,388 L 534,389 L 532,391 L 532,396 L 531,397 L 531,404 L 530,405 L 530,406 L 528,408 L 528,415 L 529,416 L 529,423 L 528,424 L 528,427 L 529,428 L 529,429 L 530,430 L 530,432 L 531,433 L 531,438 L 532,439 L 532,444 L 531,445 L 532,444 L 532,439 L 531,438 L 531,433 L 530,432 L 530,430 L 529,429 L 529,427 L 528,426 L 528,424 L 529,423 L 529,416 L 528,415 L 528,409 L 530,407 L 530,405 L 531,404 L 531,398 L 532,397 L 532,392 L 533,391 L 533,390 L 534,389 L 534,388 L 533,387 L 534,386 L 535,386 L 535,385 L 536,384 L 535,384 L 534,383 L 535,382 L 535,379 L 534,378 L 535,377 L 535,376 L 536,375 L 536,371 L 537,370 L 537,354 L 538,353 L 537,352 L 537,349 L 536,348 L 536,347 Z" fill="none" stroke="black" stroke-width="1" /><path d="M 639,343 L 639,344 L 640,345 L 644,345 L 646,347 L 647,347 L 648,348 L 645,345 L 641,345 Z" fill="none" stroke="black" stroke-width="1" /><path d="M 651,327 L 650,328 L 646,328 L 652,328 L 653,327 L 654,327 L 653,327 L 652,328 Z" fill="none" stroke="black" stroke-width="1" /><path d="M 541,302 L 540,303 L 540,304 L 541,305 L 541,306 L 540,307 L 540,309 L 541,310 L 539,312 L 539,316 L 537,318 L 537,320 L 537,319 L 539,317 L 539,315 L 540,314 L 539,313 L 541,311 L 541,309 L 542,308 L 542,307 L 541,306 L 541,304 L 540,303 Z" fill="none" stroke="black" stroke-width="1" /><path d="M 540,308 L 541,307 L 542,308 L 541,309 Z" fill="none" stroke="black" stroke-width="1" /><path d="M 516,244 L 513,247 L 513,248 L 512,249 L 511,249 L 510,250 L 510,253 L 509,254 L 509,255 L 507,257 L 507,263 L 505,265 L 505,267 L 504,268 L 504,270 L 503,271 L 503,272 L 502,273 L 502,277 L 501,278 L 501,282 L 502,283 L 502,286 L 503,287 L 503,291 L 505,293 L 505,303 L 506,304 L 505,305 L 505,312 L 506,313 L 506,314 L 505,315 L 505,320 L 504,321 L 504,324 L 503,325 L 504,325 L 505,326 L 505,327 L 504,328 L 504,333 L 503,334 L 503,343 L 504,344 L 504,347 L 503,348 L 502,348 L 501,347 L 501,346 L 502,345 L 501,345 L 501,348 L 504,348 L 505,349 L 505,351 L 506,352 L 506,353 L 507,354 L 507,355 L 508,356 L 508,360 L 510,362 L 510,363 L 511,364 L 511,365 L 512,366 L 512,370 L 511,371 L 514,371 L 516,373 L 517,373 L 518,374 L 518,381 L 519,382 L 521,382 L 522,383 L 521,384 L 521,386 L 520,387 L 520,390 L 521,390 L 520,389 L 520,387 L 521,386 L 521,384 L 522,383 L 522,380 L 522,381 L 521,382 L 520,382 L 518,380 L 518,374 L 517,373 L 519,371 L 517,373 L 515,371 L 513,371 L 512,370 L 512,368 L 513,367 L 514,367 L 513,367 L 512,366 L 512,365 L 511,364 L 511,363 L 510,362 L 510,361 L 508,359 L 508,357 L 509,356 L 506,353 L 506,352 L 505,351 L 505,348 L 504,347 L 504,344 L 503,343 L 503,334 L 504,333 L 504,328 L 505,327 L 505,326 L 504,325 L 504,321 L 505,320 L 505,315 L 506,314 L 506,313 L 505,312 L 505,305 L 506,304 L 505,303 L 505,292 L 503,290 L 503,287 L 502,286 L 502,283 L 501,282 L 501,278 L 503,276 L 505,278 L 505,282 L 504,283 L 505,282 L 505,278 L 502,275 L 502,273 L 503,272 L 503,271 L 504,270 L 504,268 L 505,267 L 505,266 L 506,265 L 506,264 L 507,263 L 507,258 L 509,256 L 509,255 L 510,254 L 510,251 L 514,247 L 514,246 L 515,245 L 516,245 Z" fill="none" stroke="black" stroke-width="1" /><path d="M 818,230 L 817,231 L 817,232 L 821,236 L 821,237 L 824,240 L 824,239 L 823,239 L 822,238 L 822,237 L 821,236 L 821,235 L 817,231 Z" fill="none" stroke="black" stroke-width="1" /><path d="M 516,225 L 516,229 L 517,230 L 517,234 L 516,235 L 516,238 L 512,242 L 509,242 L 509,244 L 509,243 L 510,242 L 511,242 L 512,243 L 517,238 L 516,237 L 516,235 L 517,234 L 517,232 L 518,231 L 520,233 L 520,236 L 520,233 L 516,229 L 516,226 L 517,225 L 519,225 L 520,226 L 521,226 L 522,227 L 523,227 L 524,226 L 526,226 L 524,226 L 523,227 L 522,227 L 521,226 L 520,226 L 519,225 Z" fill="none" stroke="black" stroke-width="1" /><path d="M 768,183 L 770,185 L 771,185 L 772,186 L 773,186 L 774,187 L 774,188 L 776,190 L 777,190 L 778,191 L 780,191 L 783,194 L 783,195 L 784,195 L 786,197 L 787,197 L 791,201 L 791,202 L 792,203 L 793,203 L 797,207 L 798,207 L 801,210 L 801,211 L 800,212 L 799,212 L 798,211 L 798,210 L 798,212 L 800,212 L 802,214 L 804,214 L 805,215 L 805,216 L 806,217 L 806,219 L 807,220 L 807,221 L 810,224 L 810,225 L 812,225 L 813,226 L 813,227 L 812,228 L 811,228 L 812,228 L 813,227 L 814,228 L 817,228 L 815,228 L 813,226 L 813,225 L 811,225 L 809,223 L 809,222 L 807,220 L 807,219 L 806,218 L 806,217 L 805,216 L 806,215 L 805,214 L 803,214 L 801,212 L 801,210 L 802,209 L 801,209 L 799,207 L 798,207 L 794,203 L 793,203 L 791,201 L 791,200 L 788,197 L 787,197 L 785,195 L 784,195 L 783,194 L 783,193 L 781,191 L 779,191 L 778,190 L 777,190 L 774,187 L 774,186 L 773,186 L 772,185 L 771,185 L 769,183 Z" fill="none" stroke="black" stroke-width="1" /><path d="M 801,177 L 802,178 L 802,179 L 801,180 L 801,181 L 802,182 L 801,183 L 801,184 L 802,185 L 803,185 L 804,186 L 805,186 L 807,188 L 807,190 L 809,192 L 809,194 L 811,196 L 811,198 L 812,199 L 812,201 L 814,203 L 815,203 L 819,207 L 820,207 L 827,214 L 827,215 L 829,217 L 830,217 L 831,218 L 831,220 L 832,221 L 832,224 L 833,225 L 833,228 L 834,229 L 834,232 L 835,233 L 835,236 L 837,238 L 836,239 L 836,240 L 837,241 L 836,240 L 836,239 L 837,238 L 838,238 L 839,239 L 839,241 L 840,242 L 840,247 L 841,248 L 841,251 L 842,252 L 842,253 L 841,254 L 841,257 L 843,257 L 845,259 L 845,261 L 846,262 L 846,264 L 847,265 L 847,270 L 848,271 L 848,273 L 849,274 L 848,275 L 848,279 L 847,280 L 847,284 L 848,285 L 847,286 L 847,294 L 848,295 L 848,297 L 847,298 L 847,303 L 846,304 L 846,307 L 845,308 L 845,309 L 844,310 L 844,313 L 843,314 L 843,325 L 842,326 L 842,327 L 843,328 L 843,329 L 842,330 L 842,334 L 841,335 L 841,343 L 842,344 L 842,345 L 841,346 L 841,361 L 843,361 L 845,363 L 847,363 L 849,365 L 849,367 L 850,368 L 850,374 L 848,376 L 848,377 L 847,378 L 847,379 L 846,380 L 846,381 L 844,383 L 844,384 L 843,385 L 844,385 L 844,384 L 846,382 L 846,381 L 847,380 L 847,379 L 848,378 L 848,377 L 850,375 L 850,368 L 849,367 L 849,364 L 848,363 L 846,363 L 844,361 L 842,361 L 841,360 L 841,346 L 842,345 L 842,344 L 841,343 L 841,335 L 842,334 L 842,330 L 843,329 L 843,328 L 842,327 L 842,326 L 843,325 L 843,315 L 844,314 L 844,311 L 845,310 L 845,308 L 846,307 L 846,304 L 847,303 L 847,298 L 848,297 L 848,295 L 847,294 L 847,286 L 848,285 L 847,284 L 847,280 L 848,279 L 848,275 L 849,274 L 848,273 L 848,271 L 847,270 L 847,265 L 846,264 L 846,262 L 845,261 L 845,259 L 844,258 L 844,254 L 843,255 L 843,256 L 842,257 L 841,256 L 841,254 L 842,253 L 842,251 L 841,250 L 841,248 L 840,247 L 840,242 L 839,241 L 839,238 L 838,238 L 835,235 L 835,233 L 834,232 L 834,229 L 833,228 L 833,225 L 832,224 L 832,221 L 831,220 L 831,218 L 827,214 L 827,213 L 821,207 L 820,207 L 816,203 L 815,203 L 812,200 L 812,199 L 811,198 L 811,195 L 809,193 L 809,191 L 807,189 L 807,187 L 806,186 L 805,186 L 803,184 L 802,185 L 801,184 L 801,183 L 802,182 L 803,182 L 801,180 L 802,179 L 802,177 Z" fill="none" stroke="black" stroke-width="1" /><path d="M 762,177 L 762,178 L 763,178 L 764,179 L 767,179 L 768,180 L 770,180 L 769,180 L 768,179 L 765,179 L 764,178 L 763,178 Z" fill="none" stroke="black" stroke-width="1" /><path d="M 620,169 L 619,170 L 618,170 L 617,171 L 616,171 L 615,172 L 614,172 L 611,175 L 611,177 L 610,178 L 607,178 L 605,180 L 602,180 L 601,181 L 601,183 L 600,184 L 598,184 L 597,185 L 595,185 L 591,189 L 589,189 L 588,190 L 587,190 L 585,192 L 584,192 L 583,193 L 580,193 L 580,194 L 578,196 L 578,197 L 577,198 L 576,198 L 574,200 L 574,202 L 573,203 L 572,203 L 571,204 L 571,206 L 569,208 L 567,208 L 563,212 L 563,213 L 562,214 L 562,215 L 561,216 L 561,218 L 560,219 L 559,219 L 558,220 L 558,226 L 556,228 L 556,229 L 558,227 L 558,221 L 561,218 L 561,217 L 562,216 L 562,215 L 563,214 L 563,213 L 568,208 L 570,208 L 571,207 L 571,205 L 573,203 L 574,203 L 574,201 L 577,198 L 578,198 L 578,197 L 580,195 L 580,194 L 581,193 L 583,193 L 584,192 L 586,192 L 587,193 L 587,194 L 587,193 L 586,192 L 588,190 L 589,190 L 590,189 L 591,189 L 592,188 L 593,188 L 596,185 L 598,185 L 599,184 L 601,184 L 601,182 L 603,180 L 606,180 L 608,178 L 611,178 L 612,177 L 611,176 L 615,172 L 616,172 L 617,171 L 618,171 L 619,170 L 620,170 L 621,169 L 624,169 Z" fill="none" stroke="black" stroke-width="1" /><path d="M 586,143 L 585,144 L 584,144 L 584,145 L 583,146 L 583,147 L 580,150 L 579,150 L 574,155 L 573,155 L 572,156 L 570,156 L 567,159 L 566,159 L 563,162 L 562,162 L 561,163 L 560,163 L 559,164 L 555,164 L 554,165 L 554,169 L 550,173 L 550,174 L 544,180 L 543,180 L 542,181 L 542,182 L 540,184 L 540,186 L 538,188 L 538,190 L 537,191 L 535,191 L 533,193 L 533,195 L 532,196 L 532,198 L 528,202 L 527,202 L 527,203 L 526,204 L 526,205 L 525,206 L 525,207 L 524,208 L 524,210 L 525,211 L 525,212 L 524,213 L 524,217 L 523,218 L 523,221 L 522,222 L 521,221 L 520,221 L 521,221 L 522,222 L 521,223 L 521,224 L 523,222 L 523,219 L 524,218 L 524,213 L 525,212 L 525,211 L 524,210 L 524,208 L 526,206 L 526,205 L 527,204 L 527,203 L 528,202 L 529,202 L 531,200 L 531,199 L 532,198 L 532,196 L 533,195 L 533,194 L 536,191 L 538,191 L 538,189 L 540,187 L 540,185 L 542,183 L 542,182 L 544,180 L 545,180 L 550,175 L 550,174 L 554,170 L 556,170 L 557,171 L 557,170 L 560,167 L 561,167 L 561,166 L 560,167 L 559,167 L 556,170 L 555,170 L 554,169 L 554,166 L 556,164 L 560,164 L 561,163 L 562,163 L 563,162 L 564,162 L 567,159 L 568,159 L 571,156 L 572,156 L 573,155 L 575,155 L 580,150 L 581,150 L 583,148 L 583,147 L 584,146 L 585,147 L 587,147 L 588,146 L 587,147 L 585,147 L 584,146 L 584,145 L 585,144 L 586,144 Z" fill="none" stroke="black" stroke-width="1" /><path d="M 767,138 L 768,139 L 770,139 L 771,140 L 771,141 L 772,142 L 772,143 L 773,144 L 775,144 L 776,145 L 776,147 L 778,147 L 780,149 L 780,150 L 780,148 L 779,148 L 778,147 L 777,147 L 776,146 L 776,145 L 775,144 L 774,144 L 772,142 L 772,141 L 771,140 L 771,139 L 769,139 L 768,138 Z" fill="none" stroke="black" stroke-width="1" /><path d="M 769,126 L 768,127 L 769,126 L 771,126 L 773,128 L 775,128 L 776,129 L 776,131 L 775,132 L 773,132 L 775,132 L 776,131 L 777,132 L 778,132 L 779,133 L 785,133 L 786,134 L 787,134 L 788,135 L 788,139 L 789,140 L 789,141 L 790,142 L 790,143 L 793,146 L 793,149 L 794,150 L 793,151 L 793,154 L 794,155 L 794,157 L 797,160 L 797,162 L 798,163 L 798,162 L 797,161 L 797,160 L 796,159 L 796,158 L 794,156 L 794,155 L 793,154 L 793,151 L 794,150 L 793,149 L 793,145 L 792,144 L 791,144 L 790,143 L 790,142 L 789,141 L 789,139 L 788,138 L 788,135 L 785,132 L 784,133 L 783,132 L 782,133 L 780,133 L 779,132 L 778,132 L 776,130 L 776,128 L 774,128 L 773,127 L 772,127 L 771,126 Z" fill="none" stroke="black" stroke-width="1" /><path d="M 757,121 L 759,123 L 759,124 L 760,125 L 760,127 L 761,128 L 760,129 L 758,129 L 760,129 L 762,131 L 762,133 L 764,135 L 764,134 L 762,132 L 764,130 L 765,131 L 766,131 L 767,130 L 767,129 L 765,131 L 764,130 L 763,131 L 761,129 L 761,128 L 760,127 L 760,124 L 758,122 L 758,121 Z" fill="none" stroke="black" stroke-width="1" /><path d="M 752,119 L 752,120 L 750,122 L 751,123 L 751,127 L 753,129 L 755,129 L 754,128 L 753,128 L 751,126 L 751,121 L 753,119 Z" fill="none" stroke="black" stroke-width="1" /><path d="M 629,106 L 627,108 L 627,109 L 626,110 L 623,110 L 623,111 L 619,115 L 619,116 L 618,117 L 618,121 L 617,122 L 617,124 L 616,125 L 616,128 L 615,129 L 614,129 L 612,131 L 609,131 L 608,132 L 606,132 L 605,133 L 603,133 L 602,134 L 600,134 L 599,135 L 598,135 L 597,136 L 596,136 L 594,138 L 591,138 L 590,137 L 590,139 L 589,140 L 589,142 L 588,143 L 588,144 L 589,143 L 589,141 L 590,140 L 590,139 L 591,138 L 595,138 L 597,136 L 598,136 L 600,134 L 602,134 L 603,133 L 606,133 L 607,132 L 608,132 L 609,131 L 612,131 L 613,130 L 614,130 L 616,128 L 616,125 L 618,123 L 617,122 L 618,121 L 618,117 L 623,112 L 623,111 L 624,110 L 625,110 L 626,111 L 626,110 L 630,106 L 631,106 Z" fill="none" stroke="black" stroke-width="1" /><path d="M 736,102 L 736,103 L 737,103 L 738,104 L 738,105 L 739,104 L 740,105 L 740,106 L 741,107 L 741,108 L 742,109 L 742,110 L 743,109 L 745,109 L 747,111 L 747,112 L 748,112 L 749,113 L 749,114 L 750,115 L 751,114 L 752,114 L 753,115 L 754,114 L 755,115 L 756,115 L 757,116 L 758,116 L 759,117 L 758,118 L 758,119 L 758,118 L 759,117 L 757,115 L 756,115 L 755,114 L 750,114 L 749,113 L 749,112 L 748,112 L 746,110 L 746,109 L 745,109 L 744,108 L 743,109 L 741,107 L 741,106 L 740,105 L 740,104 L 739,104 L 738,103 L 737,103 Z" fill="none" stroke="black" stroke-width="1" /><path d="M 722,96 L 722,97 L 721,98 L 720,97 L 718,97 L 719,97 L 720,98 L 721,98 L 722,97 L 723,98 L 723,99 L 724,100 L 724,102 L 726,104 L 726,103 L 724,101 L 724,99 L 722,97 Z" fill="none" stroke="black" stroke-width="1" /><path d="M 628,90 L 627,91 L 625,91 L 625,92 L 624,93 L 624,94 L 625,95 L 625,96 L 626,96 L 624,94 L 624,93 L 626,91 L 627,91 L 628,90 L 629,91 L 630,90 L 632,90 L 633,91 L 634,90 L 635,90 L 634,90 L 633,91 L 632,90 L 630,90 L 629,91 Z" fill="none" stroke="black" stroke-width="1" /><path d="M 642,79 L 643,80 L 646,80 L 647,81 L 648,81 L 649,82 L 649,83 L 651,83 L 653,81 L 657,81 L 658,82 L 659,82 L 660,83 L 661,83 L 661,82 L 662,81 L 660,83 L 659,82 L 658,82 L 657,81 L 658,80 L 657,81 L 653,81 L 652,82 L 651,82 L 650,83 L 649,82 L 649,81 L 648,81 L 647,80 L 643,80 Z" fill="none" stroke="black" stroke-width="1" /><path d="M 709,78 L 708,79 L 706,79 L 708,79 L 709,78 L 710,78 L 711,79 L 716,79 L 718,81 L 718,88 L 718,81 L 719,80 L 721,80 L 724,83 L 723,84 L 724,85 L 723,86 L 723,87 L 724,88 L 724,91 L 725,92 L 726,92 L 724,90 L 724,88 L 723,87 L 723,86 L 724,85 L 723,84 L 724,83 L 724,82 L 722,80 L 722,79 L 721,78 L 721,79 L 720,80 L 717,80 L 716,79 L 711,79 L 710,78 Z" fill="none" stroke="black" stroke-width="1" /><path d="M 635,76 L 635,77 L 636,76 L 638,76 L 640,78 L 641,77 L 645,77 L 640,77 L 639,76 Z" fill="none" stroke="black" stroke-width="1" /><path d="M 690,67 L 689,68 L 688,68 L 687,69 L 686,69 L 684,71 L 684,72 L 683,73 L 682,73 L 682,74 L 678,78 L 676,78 L 676,79 L 674,81 L 672,79 L 672,80 L 673,80 L 674,81 L 675,80 L 676,80 L 676,79 L 677,78 L 678,78 L 679,77 L 680,77 L 682,75 L 682,74 L 683,73 L 684,73 L 684,72 L 687,69 L 688,69 L 689,68 L 690,68 L 691,69 L 691,70 L 690,71 L 690,72 L 691,73 L 691,74 L 691,73 L 690,72 L 691,71 L 691,69 L 690,68 Z" fill="none" stroke="black" stroke-width="1" /></svg>