<?xml version="1.0" standalone="no"?>
<!DOCTYPE svg PUBLIC "-//W3C//DTD SVG 20010904//EN"
 "http://www.w3.org/TR/2001/REC-SVG-20010904/DTD/svg10.dtd">
<svg version="1.0" xmlns="http://www.w3.org/2000/svg"
 width="1001.000000pt" height="631.000000pt" viewBox="0 0 1001.000000 631.000000"
 preserveAspectRatio="xMidYMid meet">

<g transform="translate(0.000000,631.000000) scale(0.100000,-0.100000)"
fill="#000000" stroke="none">
<path d="M6370 4590 c-113 -4 -308 -10 -435 -14 -126 -3 -282 -8 -345 -11 -63
-3 -196 -7 -295 -10 -99 -3 -252 -8 -340 -10 -340 -11 -1109 -35 -1305 -40
-113 -3 -243 -7 -290 -10 -47 -2 -204 -7 -350 -11 -146 -3 -292 -10 -325 -15
-84 -12 -175 -60 -227 -118 -69 -77 -166 -228 -183 -283 -32 -109 -26 -141
129 -687 36 -126 53 -202 50 -223 -3 -21 8 -77 30 -152 l34 -119 -124 -179
c-69 -99 -128 -186 -131 -194 -3 -8 0 -35 7 -59 l13 -45 52 0 52 0 96 137 c54
75 97 134 97 131 0 -4 11 -48 25 -98 l24 -92 -92 -132 c-51 -72 -109 -157
-131 -188 l-38 -57 13 -51 13 -50 52 0 52 0 93 135 c57 82 96 130 99 123 4 -7
17 -50 30 -95 l22 -82 -94 -133 c-52 -73 -112 -158 -132 -190 l-38 -56 14 -49
c10 -34 19 -48 31 -47 100 5 83 -9 192 149 l100 144 23 -77 c13 -42 37 -121
53 -175 37 -122 107 -229 199 -304 36 -29 71 -53 78 -53 6 0 12 -4 12 -9 0
-11 109 -60 174 -78 61 -17 274 -18 601 -4 121 6 339 13 485 16 146 3 389 10
540 15 151 5 374 12 495 15 121 3 263 7 315 10 52 3 199 7 325 10 127 3 316
10 420 15 105 5 330 12 500 15 422 8 518 17 591 51 81 38 130 87 218 218 63
93 79 125 91 181 22 106 21 109 -165 765 -73 257 -174 613 -376 1335 -98 347
-111 383 -168 462 -85 116 -202 203 -338 250 -87 30 -199 35 -518 23z m-2148
-117 c24 -21 23 -39 -4 -57 -45 -32 -137 -7 -138 36 -1 36 107 53 142 21z
m1336 -59 c45 -31 21 -74 -41 -74 -29 0 -46 7 -68 29 -27 27 -38 51 -23 51 3
0 15 -11 26 -25 22 -28 41 -34 32 -10 -8 19 13 45 35 45 9 0 27 -7 39 -16z
m-388 -20 c30 -9 61 -18 68 -20 6 -2 12 -8 12 -14 0 -13 -46 -6 -97 15 l-32
14 6 -30 c8 -43 -12 -35 -25 10 -15 48 -15 54 1 48 6 -3 37 -13 67 -23z m-258
-3 c17 -15 12 -55 -8 -65 -11 -6 -19 -18 -17 -26 2 -8 -2 -6 -9 6 -10 16 -21
20 -49 17 -41 -5 -62 14 -57 49 2 19 9 23 41 24 20 1 40 4 44 8 7 7 43 -2 55
-13z m1798 -5 c24 -64 103 -367 97 -373 -12 -11 -401 -19 -409 -8 -13 18 -110
377 -103 383 4 4 82 9 173 12 92 3 182 7 200 8 26 2 34 -3 42 -22z m-2165 0
c32 -14 63 -52 51 -63 -3 -4 -17 6 -30 20 -14 15 -27 27 -29 27 -8 0 6 -55 17
-70 9 -13 8 -13 -4 -3 -9 6 -31 11 -49 11 -55 -2 -80 47 -39 76 28 20 39 20
83 2z m-281 -28 c8 -33 7 -48 -4 -48 -5 0 -10 7 -10 16 0 11 -5 14 -16 10 -9
-3 -29 -6 -45 -6 -21 0 -27 -4 -23 -15 4 -8 2 -15 -3 -15 -13 0 -48 39 -41 46
3 3 31 8 62 11 31 3 56 10 56 14 0 18 18 8 24 -13z m946 -33 c7 -9 10 -18 6
-22 -3 -3 -6 -1 -6 6 0 6 -10 16 -22 21 -16 6 -18 9 -7 9 9 1 22 -6 29 -14z
m390 -14 c0 -5 -11 -16 -25 -25 -31 -20 -24 -36 16 -36 16 0 29 -4 29 -10 0
-6 -32 -10 -75 -10 -71 0 -75 1 -81 25 -3 14 -4 32 0 40 6 17 61 21 71 5 4 -7
14 -5 28 5 24 17 37 19 37 6z m-330 -11 c0 -5 -9 -14 -20 -20 -31 -17 -25 -40
10 -40 17 0 30 -4 30 -10 0 -6 -32 -10 -75 -10 -71 0 -75 1 -81 25 -3 14 -4
32 0 40 6 17 61 21 71 5 4 -7 14 -5 28 5 25 17 37 19 37 5z m-330 -10 c0 -5
-9 -14 -20 -20 -31 -17 -25 -40 10 -40 17 0 30 -4 30 -9 0 -5 -32 -11 -71 -13
-68 -3 -72 -2 -81 22 -6 15 -6 31 0 40 11 18 49 25 65 12 8 -7 18 -6 31 4 23
16 36 18 36 4z m-330 -10 c0 -5 -9 -14 -20 -20 -31 -17 -25 -40 10 -40 17 0
30 -4 30 -10 0 -6 -30 -10 -70 -10 -67 0 -71 1 -80 26 -7 19 -7 31 1 40 13 16
51 18 65 4 7 -7 17 -5 30 5 22 17 34 19 34 5z m2257 -15 c-16 -11 -17 -18 -8
-52 13 -46 14 -73 3 -73 -5 0 -16 27 -25 60 -14 48 -21 60 -37 60 -42 0 -18
19 28 22 56 4 63 1 39 -17z m118 9 c24 -24 16 -68 -13 -72 -20 -3 -23 -8 -17
-29 4 -18 2 -24 -7 -21 -12 4 -50 116 -43 128 8 13 64 9 80 -6z m108 -44 c11
-39 22 -60 32 -60 8 0 15 -4 15 -10 0 -5 -18 -10 -40 -10 -37 0 -55 13 -29 22
8 3 8 15 0 45 -10 35 -14 40 -34 36 -21 -5 -21 -4 3 16 14 11 28 21 31 21 3 0
13 -27 22 -60z m-2875 28 c9 -9 15 -9 24 0 7 7 21 12 33 12 18 -1 17 -3 -7
-21 -36 -27 -35 -39 1 -39 41 0 47 -16 10 -24 -59 -12 -116 -7 -123 10 -8 21
-8 59 1 67 11 11 48 8 61 -5z m-686 -19 c40 -22 63 -124 34 -149 -36 -29 -90
12 -105 83 -14 60 21 93 71 66z m152 -5 c21 -21 20 -42 -4 -81 l-20 -33 35 0
c24 0 35 -5 35 -15 0 -11 -11 -15 -39 -15 -22 0 -46 -3 -55 -6 -24 -9 -21 31
5 67 28 40 22 64 -16 64 -30 0 -48 12 -39 27 9 14 82 9 98 -8z m-402 -24 c26
-31 22 -48 -12 -68 -23 -13 -30 -23 -28 -42 2 -16 -2 -26 -13 -28 -13 -2 -21
15 -38 76 -11 43 -21 82 -21 86 0 5 21 6 47 3 32 -3 53 -12 65 -27z m132 15
c37 -38 26 -85 -20 -85 -27 0 -27 0 -14 -35 9 -24 8 -26 -11 -23 -18 2 -26 18
-44 81 l-23 77 49 0 c29 0 53 -6 63 -15z m-580 -5 c36 -13 44 -54 17 -90 -28
-38 -27 -40 14 -40 24 0 35 -5 35 -15 0 -11 -13 -15 -54 -15 -65 0 -72 11 -39
62 12 21 23 44 23 52 0 17 -24 28 -45 20 -25 -10 -40 7 -20 23 22 16 35 16 69
3z m164 -11 c2 -12 -5 -14 -34 -11 -45 5 -39 -11 11 -32 18 -8 41 -26 51 -41
16 -25 16 -27 -3 -47 -17 -16 -28 -19 -56 -14 -19 4 -38 13 -41 22 -4 12 1 14
29 12 49 -4 47 14 -3 36 -43 20 -61 49 -48 82 8 21 90 16 94 -7z m84 -6 l17
-28 1 28 c0 22 5 27 24 27 21 0 26 -8 40 -63 8 -35 18 -71 22 -80 4 -13 1 -17
-15 -17 -13 0 -21 7 -22 18 0 9 -7 35 -15 57 -10 29 -13 32 -10 13 4 -33 -19
-38 -40 -10 -10 13 -10 7 1 -30 13 -45 13 -48 -4 -48 -14 0 -22 16 -36 68 -10
37 -20 73 -23 80 -9 25 43 12 60 -15z m2573 -80 c5 -13 18 -23 27 -23 11 0 18
-8 18 -19 0 -16 -10 -20 -66 -26 -61 -7 -65 -9 -60 -29 4 -11 13 -49 22 -83
l16 -61 31 9 c73 21 117 9 117 -32 0 -15 -130 -11 -131 4 0 6 -5 -1 -11 -18
-10 -27 -12 -28 -19 -10 -8 19 -9 19 -6 1 1 -15 11 -20 42 -21 72 -4 76 -5 69
-16 -4 -8 0 -8 15 0 19 10 22 9 31 -15 20 -51 12 -59 -65 -59 l-69 0 -18 50
c-10 28 -16 60 -13 73 6 26 -34 184 -46 177 -10 -7 -42 103 -34 116 4 5 36 9
73 7 58 -3 68 -6 77 -25z m-330 -10 c5 -13 18 -23 27 -23 27 0 23 -36 -4 -44
-13 -3 -42 -6 -65 -6 -37 0 -41 -2 -39 -23 1 -13 5 -28 9 -34 4 -6 3 -14 -3
-18 -6 -4 -8 -11 -4 -16 3 -5 11 -6 17 -2 7 4 5 -1 -3 -11 -14 -17 -16 -15
-30 33 -8 30 -19 49 -24 44 -5 -4 -5 3 -1 17 4 14 14 31 23 38 17 13 13 15
-12 6 -9 -3 -16 -14 -17 -23 0 -9 -7 1 -14 22 -22 59 -13 68 64 65 57 -3 67
-6 76 -25z m-330 -10 c5 -13 18 -23 27 -23 11 0 18 -8 18 -20 0 -23 -32 -34
-89 -28 l-39 3 2 -41 c2 -22 6 -46 10 -52 3 -6 2 -13 -3 -16 -5 -4 -13 8 -16
26 -4 18 -13 37 -20 43 -16 13 -35 70 -35 107 l0 29 68 -3 c58 -3 68 -6 77
-25z m-329 -8 c9 -14 22 -25 29 -25 17 0 29 -32 15 -40 -6 -4 -38 -8 -70 -9
-55 -2 -60 0 -60 18 0 25 -13 27 -31 5 -12 -14 -14 -14 -20 3 -4 10 -8 30 -8
46 -1 27 0 27 64 27 58 0 66 -3 81 -25z m-326 -10 c5 -14 16 -25 24 -25 15 0
30 -29 20 -39 -3 -3 -35 -7 -70 -8 -63 -2 -64 -1 -64 24 0 26 0 26 -21 7 -17
-16 -22 -16 -29 -4 -11 17 -13 54 -3 63 3 4 35 7 70 7 59 0 64 -2 73 -25z
m1500 10 c19 -22 8 -25 -12 -3 -10 10 -14 18 -9 18 5 0 14 -7 21 -15z m449
-59 c-3 -3 -11 5 -18 17 -13 21 -12 21 5 5 10 -10 16 -20 13 -22z m-1722 -16
c1 -11 -2 -18 -7 -15 -4 3 -11 -1 -13 -7 -4 -9 -6 -8 -6 3 -1 11 16 39 24 39
0 0 1 -9 2 -20z m-328 -17 c0 -16 -3 -22 -6 -15 -2 6 -9 10 -14 6 -13 -8 -11
10 3 24 17 17 18 16 17 -15z m-609 -39 c0 -8 -7 -14 -15 -14 -12 0 -14 -7 -9
-27 13 -52 24 -73 38 -73 7 0 16 -7 20 -15 4 -12 -5 -15 -49 -15 -41 0 -55 4
-55 14 0 8 6 16 14 18 22 5 -8 94 -34 101 -36 9 -21 26 28 29 55 4 62 2 62
-18z m144 11 c4 -10 -1 -15 -14 -15 -24 0 -24 0 -5 -70 19 -69 19 -70 -3 -70
-14 0 -22 16 -36 70 -16 60 -21 69 -39 67 -13 -1 -23 5 -25 16 -3 15 5 17 56
17 44 0 61 -4 66 -15z m-356 -23 c4 -29 16 -28 30 3 7 15 20 25 32 25 20 0 20
-1 5 -30 -18 -34 -12 -51 29 -89 31 -29 33 -41 6 -41 -11 0 -29 14 -42 30 -29
39 -38 38 -31 -5 4 -27 2 -35 -10 -35 -15 0 -37 58 -54 141 -5 27 -3 31 13 27
11 -2 20 -13 22 -26z m1811 -21 c14 -44 14 -64 -1 -59 -13 5 -39 93 -30 103 8
8 18 -6 31 -44z m330 5 c13 -55 14 -56 1 -56 -11 0 -22 24 -34 73 -5 20 -3 27
8 27 8 0 18 -18 25 -44z m-2482 17 c3 -7 -10 -15 -31 -18 -45 -9 -39 -38 8
-33 23 2 32 -1 34 -14 3 -14 -3 -18 -27 -18 -32 0 -37 -6 -22 -28 5 -9 17 -11
36 -6 18 4 30 2 35 -7 14 -22 1 -29 -50 -29 l-49 0 -15 55 c-9 30 -19 68 -23
85 l-6 31 53 -3 c30 -2 55 -8 57 -15z m83 -40 l31 -58 -6 58 c-6 53 -5 57 14
57 20 0 21 -6 21 -80 0 -79 0 -80 -25 -80 -21 0 -31 12 -60 70 -39 77 -42 90
-20 90 8 0 28 -26 45 -57z m-246 41 c17 -6 56 -82 56 -107 0 -26 -36 -49 -71
-45 -33 3 -34 5 -55 81 l-21 77 38 0 c20 0 45 -3 53 -6z m1985 -31 c13 -47 14
-63 1 -63 -9 0 -30 61 -30 88 0 27 20 10 29 -25z m-330 -4 c14 -39 14 -69 1
-69 -9 0 -30 61 -30 88 0 24 18 12 29 -19z m18 9 c-3 -8 -6 -5 -6 6 -1 11 2
17 5 13 3 -3 4 -12 1 -19z m-342 -36 c7 -22 10 -44 7 -47 -13 -12 -20 -2 -31
39 -14 56 -14 59 1 54 6 -2 17 -23 23 -46z m1028 -2 c-5 -18 -2 -19 18 -12 13
5 49 9 79 8 49 -1 55 -3 58 -23 3 -22 0 -23 -62 -23 -36 0 -68 5 -71 11 -4 6
-13 8 -20 5 -14 -5 -30 38 -20 55 10 16 23 0 18 -21z m-330 -10 c-3 -10 0 -26
5 -36 6 -12 7 -25 1 -35 -7 -14 -5 -17 15 -15 12 2 28 6 34 10 11 7 17 -6 12
-29 -1 -5 4 -4 11 3 15 14 33 16 24 2 -9 -14 8 -13 23 2 16 16 23 7 29 -41 l6
-41 -65 0 c-45 0 -69 5 -78 14 -16 20 -41 118 -28 110 6 -4 8 1 5 12 -18 61
-19 74 -4 68 9 -3 13 -13 10 -24z m155 -27 c3 -22 0 -23 -60 -23 -52 0 -65 4
-75 19 -11 17 -9 20 10 24 12 3 45 4 72 3 44 -1 50 -4 53 -23z m-328 -7 c0
-23 -4 -24 -64 -28 -60 -3 -65 -1 -69 19 -5 25 8 29 86 32 43 1 47 -1 47 -23z
m-327 -5 c7 -28 1 -31 -70 -31 -56 0 -63 2 -63 19 0 21 18 27 86 30 34 1 43
-3 47 -18z m837 -20 c-7 -14 -7 -21 0 -21 5 0 10 5 10 11 0 8 5 8 15 -1 12
-10 18 -10 29 -1 8 7 30 11 48 8 l33 -4 -36 -1 c-23 -1 -36 -7 -36 -16 0 -7 7
-12 16 -11 9 2 16 4 16 5 0 1 10 3 22 6 18 3 23 -2 29 -30 3 -19 3 -39 -1 -45
-9 -16 -120 -14 -133 2 -15 18 -45 108 -38 115 3 3 6 -1 6 -9 1 -10 4 -8 11 4
15 25 23 14 9 -12z m437 3 c-3 -3 -12 -4 -19 -1 -8 3 -5 6 6 6 11 1 17 -2 13
-5z m290 -20 c-3 -3 -12 -4 -19 -1 -8 3 -5 6 6 6 11 1 17 -2 13 -5z m-1677
-28 c47 1 65 -8 38 -19 -7 -3 -3 -6 10 -6 12 -1 22 4 22 9 0 23 29 8 39 -20
18 -52 7 -61 -68 -58 -72 3 -83 13 -93 83 -3 17 -3 25 -1 20 2 -6 26 -9 53 -9z
m400 4 c30 0 40 -15 40 -61 l0 -29 -64 0 c-70 0 -79 6 -94 60 l-9 36 43 -1
c25 -1 44 3 45 9 0 6 3 5 6 -1 2 -7 17 -13 33 -13z m590 -160 c15 -24 12 -44
-11 -69 -27 -29 -37 -19 -14 15 16 24 16 28 1 42 -14 14 -20 15 -37 4 -12 -8
-18 -9 -15 -3 4 5 -1 14 -11 19 -12 7 -4 9 31 8 29 -1 50 -7 56 -16z m-168
-40 c12 -37 13 -50 4 -50 -7 0 -19 23 -27 50 -11 35 -12 50 -4 50 6 0 18 -22
27 -50z m78 -10 c5 -18 5 -32 -1 -35 -9 -6 -21 17 -33 69 -6 26 -6 27 9 12 9
-9 20 -29 25 -46z m-2131 -57 c17 -61 16 -63 -38 -63 -46 0 -50 2 -60 31 -20
58 -16 66 38 68 50 1 50 1 60 -36z m-149 -2 c0 -11 -58 -71 -68 -70 -37 6 -40
0 -28 -48 9 -36 18 -48 37 -54 13 -4 38 -14 54 -23 17 -9 37 -16 47 -16 18 0
53 39 81 91 15 26 20 30 28 18 5 -7 9 -31 9 -52 0 -29 -7 -46 -29 -68 -25 -25
-37 -29 -84 -29 -91 0 -167 71 -167 155 0 46 13 71 48 89 30 17 72 21 72 7z
m3579 -35 c-3 -3 -11 5 -18 17 -13 21 -12 21 5 5 10 -10 16 -20 13 -22z
m-1325 -32 c9 -3 16 -17 16 -30 0 -18 -5 -24 -23 -24 -28 0 -47 17 -47 42 0
18 24 24 54 12z m-286 -36 c-3 -7 -21 -14 -40 -16 l-36 -3 14 -46 c13 -43 12
-63 -5 -63 -10 0 -43 119 -36 131 10 15 108 12 103 -3z m996 -64 c9 -24 7 -34
-8 -34 -14 0 -28 34 -18 44 10 10 20 6 26 -10z m-1124 -14 c0 -15 -23 -60 -31
-60 -15 0 -69 52 -63 61 7 12 94 12 94 -1z m202 -25 c5 -22 2 -25 -26 -25 -17
0 -41 -3 -53 -6 -16 -5 -25 -1 -30 11 -9 25 22 45 68 45 31 0 37 -4 41 -25z
m1010 -69 c9 -37 6 -41 -22 -26 -16 8 -25 9 -29 2 -10 -16 -29 0 -36 31 -7 28
-7 28 36 25 38 -3 44 -6 51 -32z m-1167 -31 c0 -17 -8 -20 -59 -23 -59 -3 -75
5 -76 36 0 10 17 12 68 10 59 -3 67 -5 67 -23z m184 3 c8 -21 5 -24 -35 -30
-24 -3 -47 -9 -53 -12 -5 -4 -13 4 -17 16 -8 28 18 48 63 48 26 0 36 -5 42
-22z m-326 -15 c3 -16 3 -30 1 -33 -7 -7 -24 23 -24 43 0 27 17 20 23 -10z
m-243 2 c7 -9 10 -18 6 -22 -3 -3 -6 -1 -6 6 0 6 -10 16 -22 21 -16 6 -18 9
-7 9 9 1 22 -6 29 -14z m1567 -37 c15 -19 23 -58 12 -58 -5 0 -9 5 -9 10 0 6
-9 10 -21 10 -11 0 -17 -4 -14 -10 10 -16 -12 -12 -29 6 -9 8 -16 24 -16 35 0
15 7 19 34 19 18 0 38 -6 43 -12z m-2808 -35 c15 -54 14 -63 -11 -64 -13 0
-35 -3 -49 -5 -24 -4 -28 0 -38 40 -15 62 -16 61 38 64 50 3 50 3 60 -35z
m1655 -9 c10 -27 -3 -34 -64 -34 -43 0 -59 4 -64 16 -12 30 -5 34 58 34 49 0
65 -4 70 -16z m174 4 c21 -21 13 -35 -25 -41 -21 -2 -45 -6 -53 -8 -9 -3 -16
5 -18 19 -2 16 3 25 20 31 33 14 62 13 76 -1z m-1999 -39 c-17 -22 -43 -45
-56 -50 -21 -8 -24 -13 -18 -42 10 -43 14 -48 34 -45 10 2 24 -2 32 -8 8 -6
29 -17 48 -24 33 -13 35 -12 60 17 14 16 34 45 44 63 15 27 20 31 28 19 5 -7
9 -31 9 -52 0 -92 -107 -128 -201 -68 -118 74 -101 228 24 230 l29 1 -33 -41z
m1684 14 c6 -32 3 -38 -12 -28 -13 8 -15 55 -2 55 5 0 11 -12 14 -27z m1332
-55 c15 -38 12 -48 -18 -48 -20 0 -20 0 -1 15 17 13 17 14 2 15 -9 0 -20 -4
-23 -10 -11 -19 -33 -10 -39 15 -9 34 -4 40 34 43 26 2 33 -2 45 -30z m-1165
-23 c6 -8 9 -19 5 -25 -8 -13 -125 -13 -125 0 0 6 -5 10 -11 10 -7 0 -9 -10
-5 -25 7 -27 -8 -35 -18 -9 -11 30 -7 54 9 48 8 -4 15 -1 15 5 0 17 115 14
130 -4z m184 -7 c13 -21 9 -26 -34 -33 -19 -3 -42 -8 -51 -11 -20 -6 -32 31
-15 45 28 23 85 23 100 -1z m1003 -60 c6 -7 13 -23 16 -35 4 -20 1 -23 -26
-23 -25 0 -29 3 -17 11 12 8 10 9 -9 4 -25 -8 -41 7 -41 38 0 13 8 17 34 17
18 0 38 -6 43 -12z m-1154 -39 c6 -24 0 -26 -71 -32 -55 -5 -71 5 -58 38 4 11
21 15 65 15 51 0 59 -3 64 -21z m177 7 c0 -2 3 -11 6 -20 4 -11 -4 -16 -33
-21 -21 -4 -45 -9 -54 -11 -20 -5 -32 29 -16 45 10 10 97 16 97 7z m-318 -28
c2 -17 12 -25 38 -30 32 -6 32 -6 -9 -5 -40 2 -45 5 -52 30 -5 19 -4 27 6 27
8 0 15 -10 17 -22z m-249 5 c3 -5 -5 -8 -18 -8 -13 0 -21 3 -18 8 2 4 10 7 18
7 8 0 16 -3 18 -7z m1577 -52 c13 -25 13 -51 -1 -51 -5 0 -8 4 -5 8 2 4 -5 9
-17 9 -17 2 -19 0 -7 -7 19 -12 8 -13 -23 -1 -15 6 -26 20 -29 35 -5 24 -3 26
33 26 28 0 41 -5 49 -19z m-1162 -37 c3 -23 -27 -34 -94 -34 -29 0 -34 3 -34
24 0 27 22 35 90 32 28 -1 36 -6 38 -22z m186 -1 c9 -23 -2 -30 -56 -35 -50
-6 -70 11 -47 38 17 21 95 18 103 -3z m-324 -17 c7 -19 18 -26 47 -29 35 -3
35 -4 -10 -5 -43 -2 -49 1 -57 24 -12 32 -12 34 0 34 6 0 15 -11 20 -24z
m-1484 -76 c8 -25 14 -46 14 -47 0 -2 -24 -3 -53 -3 -54 0 -54 0 -65 39 -19
61 -17 62 39 59 l52 -3 13 -45z m2817 17 c10 -30 1 -50 -12 -29 -5 9 -17 11
-34 7 -23 -6 -28 -3 -37 20 -14 37 -15 36 32 33 35 -3 43 -7 51 -31z m-2963
-6 c0 -4 -16 -25 -35 -45 -19 -21 -35 -42 -35 -47 0 -6 -4 -8 -9 -5 -13 8 -19
-13 -16 -53 3 -35 23 -57 38 -42 5 5 24 3 43 -5 18 -8 41 -14 50 -14 17 0 66
34 59 42 -2 2 6 21 19 43 l24 39 22 -73 c12 -40 19 -79 16 -87 -5 -12 -30 -14
-137 -12 l-132 3 -33 120 c-19 66 -34 123 -34 127 0 4 35 9 78 11 42 1 78 4
80 5 1 1 2 -2 2 -7z m1795 -26 c0 -11 -6 -21 -12 -21 -7 -1 -28 -2 -45 -3 -28
-2 -30 -4 -13 -11 19 -8 19 -9 -2 -9 -13 -1 -23 4 -23 9 0 6 -6 10 -14 10 -16
0 -25 19 -18 38 3 9 23 12 66 10 53 -3 61 -5 61 -23z m188 3 c4 -12 5 -23 4
-24 -1 -1 -25 -4 -54 -7 -42 -5 -52 -3 -58 11 -9 23 21 42 66 42 29 0 38 -4
42 -22z m-329 -14 c6 -24 2 -44 -8 -33 -9 11 -15 59 -7 59 5 0 12 -12 15 -26z
m-154 -40 c0 -2 -9 0 -20 6 -11 6 -20 13 -20 16 0 2 9 0 20 -6 11 -6 20 -13
20 -16z m1493 -17 c10 -32 3 -47 -15 -29 -7 7 -31 12 -55 12 -47 0 -48 2 -32
31 8 16 19 19 51 17 35 -3 43 -7 51 -31z m-1167 -43 c-4 -10 -22 -14 -65 -14
-54 0 -59 2 -63 25 -5 23 -3 24 56 27 63 3 84 -8 72 -38z m-142 0 c6 -24 2
-43 -8 -33 -11 10 -17 59 -8 59 5 0 13 -12 16 -26z m2079 -40 c17 -60 15 -80
-11 -86 -24 -6 -52 2 -52 14 0 6 9 8 21 5 27 -7 33 11 19 62 -9 34 -15 41 -35
41 -14 0 -25 5 -25 10 0 6 15 10 34 10 32 0 34 -2 49 -56z m107 42 c17 -22 8
-60 -18 -71 -18 -8 -22 -15 -17 -33 4 -17 2 -23 -7 -20 -13 5 -49 117 -41 131
7 13 70 7 83 -7z m104 -46 c12 -44 21 -58 31 -53 8 3 15 1 15 -5 0 -10 -70
-25 -79 -16 -3 3 1 9 8 13 18 12 1 86 -19 87 -31 2 -33 4 -14 19 32 24 41 18
58 -45z m-2171 13 c-7 -2 -19 -2 -25 0 -7 3 -2 5 12 5 14 0 19 -2 13 -5z m122
-97 l19 -68 116 6 c63 3 224 9 357 12 133 4 252 8 265 9 13 1 49 3 82 4 l59 1
-7 39 c-3 22 -2 42 3 45 10 6 27 -40 33 -84 l3 -25 -155 -6 c-85 -4 -279 -10
-430 -14 -151 -4 -291 -8 -310 -9 -33 -1 -35 1 -51 50 -28 87 -33 117 -18 112
8 -3 23 -35 34 -72z m2125 -50 c53 -22 86 -64 109 -140 25 -81 26 -98 6 -136
-21 -40 -59 -49 -216 -51 -193 -2 -229 18 -269 151 -24 80 -24 92 -5 129 18
36 35 43 115 51 138 12 225 11 260 -4z m-650 -11 c7 -9 10 -18 6 -22 -3 -3 -6
-1 -6 6 0 6 -10 16 -22 21 -16 6 -18 9 -7 9 9 1 22 -6 29 -14z m-54 -200 c9
-14 22 -25 29 -25 7 0 15 -9 18 -20 4 -15 0 -20 -16 -21 -68 -3 -108 -7 -111
-10 -2 -2 6 -38 18 -79 l21 -74 70 -1 c64 0 70 -2 73 -22 3 -21 -1 -22 -70
-25 -62 -3 -73 -6 -72 -20 1 -10 -2 -15 -7 -12 -5 3 -9 0 -9 -5 0 -12 6 -13
63 -15 20 -1 37 3 37 9 0 5 4 5 8 -2 4 -6 16 -11 26 -10 13 1 21 -7 26 -24 12
-42 0 -50 -71 -47 -60 3 -65 5 -78 33 -8 17 -15 50 -16 75 -2 58 -35 173 -52
183 -19 12 -16 33 9 57 12 11 19 22 17 25 -3 3 -15 -4 -26 -15 -21 -19 -21
-19 -27 3 -3 12 -6 32 -6 45 0 21 4 22 65 22 58 0 66 -3 81 -25z m-270 2 c1
-1 5 -12 8 -24 7 -21 4 -23 -31 -24 -21 -1 -49 -2 -63 -3 -16 -1 -28 6 -34 19
-9 20 -9 20 -37 -6 -20 -18 -27 -33 -24 -50 3 -13 -3 -3 -12 23 -27 76 -19 82
94 74 53 -4 98 -8 99 -9z m-385 -21 c6 -13 20 -27 30 -29 30 -8 22 -34 -12
-41 -51 -10 -97 -7 -103 7 -3 6 -3 -1 1 -18 9 -47 9 -47 -4 -52 -7 -3 -13 3
-13 12 0 9 -4 14 -10 10 -11 -7 -44 100 -36 121 4 10 23 14 71 14 59 0 66 -2
76 -24z m-330 -10 c6 -13 20 -27 30 -29 21 -6 26 -36 7 -38 -117 -10 -115 -10
-121 13 -5 18 -8 19 -21 8 -9 -7 -16 -20 -17 -29 0 -9 -7 3 -16 27 -22 63 -15
72 62 72 59 0 66 -2 76 -24z m-326 -13 c5 -13 18 -23 27 -23 23 0 24 -36 2
-44 -9 -3 -37 -6 -64 -6 -40 0 -49 3 -53 22 -5 18 -8 19 -21 8 -9 -7 -16 -22
-15 -34 1 -19 2 -18 9 4 7 23 8 23 9 3 1 -12 3 -27 4 -35 2 -7 2 -10 0 -5 -3
4 -9 5 -14 2 -4 -3 -11 7 -15 22 -3 15 -10 41 -14 56 -16 49 -5 58 69 55 57
-3 67 -6 76 -25z m-330 -10 c5 -13 18 -23 27 -23 27 0 23 -36 -4 -44 -13 -3
-42 -6 -64 -6 -35 0 -43 4 -48 23 l-6 22 -19 -22 -18 -22 -11 36 c-17 57 -9
64 67 61 57 -3 67 -6 76 -25z m574 -85 c1 -16 -3 -28 -9 -28 -5 0 -10 7 -10
16 0 8 -4 12 -10 9 -13 -8 -13 -5 2 35 10 30 12 32 19 14 4 -10 8 -31 8 -46z
m-674 -26 c-3 -3 -5 0 -5 7 0 7 -4 9 -10 6 -12 -7 -12 -3 -3 21 6 15 7 14 15
-6 5 -13 6 -25 3 -28z m1644 -19 c13 -47 14 -63 1 -63 -9 0 -30 61 -30 88 0
27 20 10 29 -25z m-652 -31 c7 -25 8 -44 2 -47 -9 -6 -23 22 -35 72 -12 45 19
21 33 -25z m333 -4 c0 -10 -4 -18 -9 -18 -11 0 -21 25 -21 53 1 22 1 22 15 3
8 -11 15 -28 15 -38z m-666 15 c3 -16 8 -38 12 -50 4 -14 2 -23 -5 -23 -12 0
-23 23 -35 73 -5 20 -3 27 8 27 7 0 16 -12 20 -27z m30 21 c-6 -3 -9 -17 -7
-32 3 -23 2 -24 -6 -7 -15 31 -13 45 7 44 9 0 12 -3 6 -5z m-355 -48 c13 -55
14 -56 1 -56 -11 0 -22 24 -34 73 -5 20 -3 27 8 27 8 0 18 -18 25 -44z m21 4
c5 -19 6 -29 1 -24 -10 10 -26 72 -17 63 4 -4 11 -21 16 -39z m666 26 c19 -20
22 -58 5 -64 -10 -3 -12 1 -8 17 3 11 2 21 -3 21 -4 0 -10 9 -13 20 -6 24 -1
25 19 6z m-1018 -35 c15 -49 15 -64 0 -59 -18 6 -40 98 -24 98 7 0 18 -17 24
-39z m1535 4 c4 -26 4 -26 -62 -23 -60 3 -66 5 -69 26 -3 21 0 22 61 22 61 0
65 -1 70 -25z m1068 -8 c16 -35 108 -371 103 -376 -9 -9 -399 -17 -409 -9 -12
11 -115 381 -108 388 2 3 83 7 179 10 95 3 185 6 199 7 18 2 28 -4 36 -20z
m-1898 -24 c-5 -13 -3 -15 13 -8 35 16 126 18 135 4 20 -32 10 -39 -60 -39
-39 0 -73 -5 -76 -10 -4 -6 -11 -8 -16 -5 -11 7 -11 3 -3 -19 3 -9 10 -16 16
-16 5 0 7 4 3 9 -3 6 4 9 15 8 11 -1 20 -8 20 -17 0 -13 1 -13 10 0 9 13 10
13 10 0 0 -13 1 -13 10 0 7 11 10 12 10 2 0 -10 8 -12 29 -7 26 6 30 3 36 -24
3 -17 4 -35 0 -41 -3 -5 -35 -10 -71 -10 l-65 0 -16 38 c-15 34 -25 136 -16
155 8 14 22 -4 16 -20z m477 8 c0 -5 3 -16 6 -25 5 -14 -5 -16 -70 -16 -47 0
-76 -4 -76 -11 0 -5 -4 -7 -10 -4 -5 3 -10 0 -11 -7 0 -9 -2 -10 -5 -1 -8 18
14 53 39 62 31 12 127 13 127 2z m-656 -27 c11 -29 6 -32 -59 -36 -63 -3 -75
2 -75 32 0 10 30 17 86 19 30 1 44 -4 48 -15z m-330 -10 c12 -30 5 -34 -59
-34 -36 0 -65 2 -65 4 0 2 -3 11 -6 19 -6 17 14 23 82 26 30 1 44 -4 48 -15z
m1184 -54 c26 -21 62 -22 104 -5 20 8 41 -25 32 -50 -5 -13 -19 -15 -73 -13
-59 3 -67 6 -78 28 -6 14 -13 41 -16 60 -2 19 -2 27 0 18 2 -10 16 -27 31 -38z
m-1500 -5 c-3 -3 -9 2 -12 12 -6 14 -5 15 5 6 7 -7 10 -15 7 -18z m1192 9 c0
-2 -7 -4 -15 -4 -8 0 -15 4 -15 10 0 5 7 7 15 4 8 -4 15 -8 15 -10z m350 6 c0
-5 -4 -10 -9 -10 -6 0 -13 5 -16 10 -3 6 1 10 9 10 9 0 16 -4 16 -10z m49 0
c-6 -5 -18 -6 -26 -3 -19 8 -16 11 13 11 17 0 22 -3 13 -8z m1417 -21 c21 -23
12 -46 -21 -59 -21 -8 -24 -14 -19 -35 4 -15 2 -25 -5 -25 -6 0 -18 26 -26 58
-9 31 -18 62 -20 69 -9 27 65 21 91 -8z m100 17 c20 -15 20 -15 -11 -88 -6
-15 -2 -18 24 -18 17 0 31 -4 31 -10 0 -5 -20 -10 -45 -10 -37 0 -45 3 -45 19
0 10 6 24 14 30 36 30 18 79 -24 66 -19 -6 -27 4 -13 18 11 12 48 8 69 -7z
m-2933 -10 c4 -10 0 -12 -15 -8 -15 4 -17 7 -6 13 17 11 15 11 21 -5z m1021 3
c11 9 16 10 16 2 0 -6 5 -11 11 -11 5 0 8 4 5 8 -2 4 4 8 14 8 10 0 16 -4 13
-9 -3 -5 4 -6 16 -2 17 5 23 1 31 -21 18 -45 7 -54 -63 -54 -71 0 -81 6 -92
58 -6 32 -6 33 13 21 17 -10 23 -10 36 0z m1696 1 c0 -5 -7 -10 -15 -10 -19 0
-19 -5 0 -66 18 -59 18 -54 2 -54 -7 0 -19 25 -28 58 -12 45 -19 58 -37 60
-42 6 -22 22 28 22 28 0 50 -4 50 -10z m-2382 -27 c6 -2 12 1 12 6 0 5 -6 12
-12 15 -7 2 -4 4 7 3 11 -2 25 -5 30 -9 17 -10 59 -13 73 -5 8 6 16 -1 22 -19
18 -47 10 -58 -47 -64 -71 -7 -90 1 -102 47 -12 42 -13 66 -3 43 4 -8 13 -16
20 -17z m-243 -4 c-9 -13 9 -11 23 3 16 16 23 7 29 -40 l5 -40 -48 -4 c-89 -7
-97 -2 -119 72 -6 20 -5 23 6 13 7 -7 27 -13 44 -12 29 1 29 1 5 9 -24 7 -23
7 10 11 40 5 53 2 45 -12z m1985 -44 c19 -22 8 -25 -12 -3 -10 10 -14 18 -9
18 5 0 14 -7 21 -15z m-1475 -46 c11 -16 1 -19 -13 -3 -7 8 -8 14 -3 14 5 0
13 -5 16 -11z m1225 -55 c13 -33 13 -54 0 -54 -5 0 -10 7 -10 15 0 11 -12 15
-46 15 -40 0 -45 -2 -34 -15 22 -27 -14 -18 -40 10 l-23 25 50 0 c58 0 86 8
77 21 -3 5 0 9 6 9 6 0 15 -12 20 -26z m-1030 6 c0 -5 9 -10 20 -10 11 0 20
-4 20 -10 0 -5 -7 -10 -16 -10 -12 0 -14 -7 -9 -30 5 -22 3 -30 -7 -30 -19 0
-118 59 -118 70 0 6 20 10 45 10 25 0 45 5 45 10 0 6 5 10 10 10 6 0 10 -4 10
-10z m364 -16 c9 -8 16 -19 16 -24 0 -5 3 -15 6 -24 4 -11 1 -16 -10 -16 -10
0 -16 9 -16 24 0 22 -16 36 -41 36 -5 0 -9 -13 -9 -30 0 -26 -3 -30 -29 -30
-31 0 -45 12 -54 48 -7 30 11 28 23 -3 12 -32 40 -33 40 -2 0 13 3 27 7 30 12
13 51 7 67 -9z m343 -19 c11 -34 2 -48 -14 -21 -6 11 -20 12 -58 6 -50 -8 -75
-4 -75 10 0 11 19 16 70 19 25 1 47 6 48 12 7 19 19 8 29 -26z m-1323 -2 c4
-16 9 -36 12 -45 8 -27 -26 -23 -66 7 -19 14 -42 25 -52 25 -21 0 -24 -20 -6
-38 9 -9 8 -12 -4 -12 -9 0 -19 7 -22 16 -22 58 16 79 74 40 22 -14 42 -26 45
-26 2 0 2 14 -1 30 -8 38 11 40 20 3z m332 -8 c17 -43 17 -45 0 -45 -9 0 -16
12 -18 28 -4 34 -48 47 -48 13 0 -24 -15 -28 -24 -6 -3 8 -13 15 -22 15 -12 0
-15 -6 -10 -25 4 -14 2 -25 -3 -25 -19 0 -29 66 -11 72 6 2 35 4 66 5 54 3 55
2 70 -32z m899 -25 c3 -5 1 -10 -4 -10 -6 0 -11 5 -11 10 0 6 2 10 4 10 3 0 8
-4 11 -10z m385 -32 c8 0 26 3 40 7 l25 6 -27 -23 c-36 -30 -35 -36 5 -40 58
-6 34 -23 -37 -26 -75 -3 -86 3 -86 50 0 29 14 38 45 31 11 -3 27 -5 35 -5z
m-930 -7 c0 -5 -11 -16 -25 -25 -35 -23 -31 -36 10 -36 41 0 48 -20 8 -21 -16
0 -49 -3 -75 -5 l-47 -5 -6 35 c-4 19 -4 39 0 45 8 14 48 14 62 0 8 -8 17 -7
34 5 26 18 39 20 39 7z m330 -4 c0 -8 -12 -19 -26 -25 -31 -15 -23 -32 17 -32
19 0 29 -5 29 -15 0 -12 -15 -15 -74 -15 -68 0 -74 2 -80 23 -9 36 -7 46 13
57 14 7 27 7 45 -1 19 -9 29 -8 47 5 28 19 29 19 29 3z m340 -33 c0 -34 -41
-58 -85 -50 -34 7 -79 50 -72 70 7 20 26 17 29 -6 4 -29 42 -48 76 -38 23 6
27 12 24 40 -2 28 0 31 13 20 8 -7 15 -23 15 -36z m-1000 27 c0 -5 -11 -16
-25 -25 -31 -20 -24 -36 16 -36 34 0 40 -20 7 -21 -13 0 -46 -3 -74 -5 -47 -4
-52 -3 -58 18 -11 42 -7 57 18 64 13 3 33 1 44 -5 14 -8 24 -7 38 4 22 17 34
19 34 6z m-330 -11 c0 -5 -9 -14 -20 -20 -31 -17 -25 -40 10 -40 38 0 40 -20
3 -21 -113 -6 -117 -5 -127 24 -8 22 -6 31 7 44 14 14 22 15 47 6 23 -8 33 -8
47 3 21 16 33 18 33 4z"/>
<path d="M4110 4451 c0 -23 39 -35 81 -26 54 12 25 45 -38 45 -36 0 -43 -3
-43 -19z m61 -6 c-1 -15 -24 -12 -29 3 -3 9 2 13 12 10 10 -1 17 -7 17 -13z"/>
<path d="M5512 4401 c-19 -12 -3 -43 21 -39 11 2 22 8 24 15 5 15 -30 34 -45
24z"/>
<path d="M4862 4368 c4 -29 38 -38 38 -10 0 11 -7 23 -16 26 -24 9 -26 8 -22
-16z"/>
<path d="M4790 4365 c0 -21 28 -31 43 -16 9 9 8 14 -3 21 -22 14 -40 12 -40
-5z"/>
<path d="M6392 4373 c-52 -3 -73 -7 -70 -16 3 -7 24 -86 49 -176 l44 -163 180
7 c99 4 182 9 184 10 3 3 -14 68 -72 273 l-20 72 -111 -2 c-61 -1 -144 -4
-184 -5z m288 -56 c10 -38 20 -74 49 -172 17 -55 23 -95 14 -95 -4 0 -76 -3
-160 -7 l-152 -6 -15 54 c-9 30 -29 100 -44 156 l-29 102 101 3 c56 2 129 4
163 5 l62 2 11 -42z"/>
<path d="M4465 4360 c-10 -16 4 -30 32 -30 19 0 24 4 19 16 -3 9 -6 18 -6 20
0 9 -39 4 -45 -6z"/>
<path d="M5482 4273 c2 -11 14 -19 31 -21 26 -3 28 -2 17 17 -13 26 -53 29
-48 4z"/>
<path d="M5152 4263 c2 -11 14 -19 31 -21 26 -3 28 -2 17 17 -13 26 -53 29
-48 4z"/>
<path d="M4827 4264 c-12 -12 6 -34 29 -34 26 0 30 10 12 28 -13 13 -31 16
-41 6z"/>
<path d="M4500 4240 c0 -15 7 -20 25 -20 27 0 32 9 13 28 -18 18 -38 14 -38
-8z"/>
<path d="M6930 4261 c0 -23 14 -41 31 -41 21 0 25 20 7 38 -14 14 -38 16 -38
3z"/>
<path d="M4174 4235 c-6 -15 2 -35 14 -35 4 0 13 4 21 9 12 8 12 12 2 25 -17
20 -30 20 -37 1z"/>
<path d="M3492 4199 c2 -15 10 -23 26 -24 20 -2 21 0 9 19 -20 30 -39 33 -35
5z"/>
<path d="M3512 4134 c12 -26 23 -30 33 -14 9 14 -7 35 -27 36 -14 1 -15 -2 -6
-22z"/>
<path d="M3218 4185 c5 -27 9 -29 31 -16 12 8 12 12 2 25 -21 25 -39 20 -33
-9z"/>
<path d="M3357 4190 c3 -11 14 -20 24 -20 22 0 24 11 7 28 -19 19 -37 14 -31
-8z"/>
<path d="M5543 4083 c-7 -3 -13 -9 -13 -15 0 -7 5 -6 14 1 11 9 15 9 19 -1 4
-9 6 -9 6 -1 1 15 -10 22 -26 16z"/>
<path d="M4880 4055 c-17 -21 -9 -27 13 -10 10 7 14 16 9 19 -5 3 -15 -1 -22
-9z"/>
<path d="M2875 3913 c3 -10 9 -30 12 -46 6 -32 20 -44 35 -29 14 14 -8 78 -28
86 -24 9 -27 7 -19 -11z"/>
<path d="M4728 3763 c7 -3 16 -2 19 1 4 3 -2 6 -13 5 -11 0 -14 -3 -6 -6z"/>
<path d="M6995 2558 c10 -30 11 -32 30 -24 24 9 14 40 -14 44 -20 3 -22 1 -16
-20z"/>
<path d="M6920 2383 c-52 -19 -61 -58 -34 -149 18 -63 51 -106 94 -124 46 -19
291 -8 325 14 30 19 33 64 11 138 -21 67 -31 84 -70 107 -30 19 -48 21 -172
20 -77 0 -146 -3 -154 -6z m319 -41 c28 -20 59 -97 60 -149 1 -43 -29 -63 -95
-63 -51 0 -52 0 -58 35 -6 29 -11 35 -32 35 -23 0 -24 -3 -18 -35 6 -34 5 -35
-27 -36 -95 -3 -126 15 -151 87 -35 105 -16 144 73 144 45 0 48 -2 59 -35 9
-28 17 -35 37 -35 16 0 23 5 20 13 -18 49 -18 56 5 60 41 9 101 -1 127 -21z"/>
<path d="M5759 2123 c-13 -16 -12 -17 4 -4 16 13 21 21 13 21 -2 0 -10 -8 -17
-17z"/>
<path d="M7094 1941 l-92 -6 30 -105 c16 -58 38 -136 49 -174 l21 -69 181 8
c100 4 183 7 183 8 1 1 -14 56 -33 122 -18 66 -41 144 -49 173 l-15 52 -92 -2
c-51 -1 -133 -4 -183 -7z m302 -166 l42 -150 -42 -5 c-22 -3 -95 -7 -162 -8
l-121 -3 -38 138 c-21 76 -40 146 -43 155 -4 15 8 18 104 21 60 2 133 3 163 3
l55 -1 42 -150z"/>
<path d="M5497 1903 c-4 -3 -7 -11 -7 -17 0 -6 5 -5 12 2 6 6 9 14 7 17 -3 3
-9 2 -12 -2z"/>
<path d="M7615 1823 c8 -35 8 -35 34 -25 20 7 20 9 5 30 -23 33 -48 29 -39 -5z"/>
<path d="M5580 1645 c0 -2 13 -11 29 -19 27 -15 29 -14 24 4 -3 13 -14 20 -29
20 -13 0 -24 -2 -24 -5z"/>
<path d="M6582 1543 c2 -11 14 -19 31 -21 26 -3 28 -2 17 17 -13 26 -53 29
-48 4z"/>
<path d="M5590 1530 c0 -15 7 -20 25 -20 27 0 32 9 13 28 -18 18 -38 14 -38
-8z"/>
<path d="M5922 1523 c2 -11 14 -19 31 -21 29 -4 35 6 15 26 -19 19 -50 15 -46
-5z"/>
<path d="M5260 1520 c0 -15 7 -20 25 -20 28 0 34 24 9 34 -26 10 -34 7 -34
-14z"/>
<path d="M4935 1520 c-10 -16 4 -30 31 -30 22 0 23 3 14 20 -11 21 -35 27 -45
10z"/>
</g>
</svg>
